<svg xmlns="http://www.w3.org/2000/svg" xml:space="preserve" width="30mm" height="47mm" fill-rule="evenodd" stroke-linejoin="round" stroke-width="28.222" preserveAspectRatio="xMidYMid" version="1.2" viewBox="0 0 3000 4700"><defs class="ClipPathGroup"><clipPath id="a" clipPathUnits="userSpaceOnUse"><path d="M0 0h3000v4700H0z"/></clipPath></defs><g class="SlideGroup"><g class="Slide" clip-path="url(#a)"><g class="Page"><g class="Group"><g class="com.sun.star.drawing.ClosedBezierShape"><path fill="none" d="M149 249h2753v4166H149z" class="BoundingBox"/><path fill="#1b1918" d="m2051 4077-4 99c-6-7-20-14-30-17-21-4-48-4-78-7-14 30-10 58 40 78 24 10 41 34 31 71-3 7-3 20 0 27 10 14 20 21 44 24 7 27 27 58 75 61 47 0 71-27 78-51 38 0 51-13 51-41 0-16-4-23 0-37 7-13 14-24 27-30 10-7 17-10 24-14 37-10 47-44 34-68-14 0-65-3-78-3-20 3-24 10-31 13v-64h4c200 37 369 17 478-88 152-180 176-475 183-519 17-119-112-190-261-237 10-75 125-221 163-306-160-37-357 38-384 62l173-1618h-166l10-122h31c24-4 30-21 34-31v-37c13 0 27-4 37-7 20-3 37-14 44-34 7-23 7-68 4-91-4-17-14-31-31-41-14-7-30-10-54-14v-30c0-4-4-34-48-34h-346c-24 3-41 14-41 41v23c-23 4-44 7-61 14-17 10-30 24-30 47-4 24-4 48 0 78 6 21 17 34 47 41 17 7 27 7 44 10v34c4 17 17 31 34 31h31l-4 122h-447v-122h27c24-4 30-21 30-31v-37c17 0 34-4 48-7 20-3 34-14 41-34 10-23 6-68 3-91-3-17-14-31-27-41-17-7-37-10-61-14v-30c0-4-4-34-48-34h-332c-44 0-47 30-47 34v30c-24 4-45 7-62 14-13 10-23 24-27 41-3 23-7 68 4 91 7 20 20 31 40 34 14 3 31 7 48 7v37c0 10 6 27 31 31h27v122H925l-3-122h30c17 0 30-14 34-31v-34c17-3 27-3 44-10 31-7 41-20 47-41 4-30 4-54 0-78 0-23-13-37-30-47-17-7-37-10-61-14v-23c0-27-17-38-41-41H599c-44 0-48 30-48 34v30c-23 4-40 7-54 14-17 10-27 24-30 41-4 23-4 68 3 91 7 20 24 31 44 34 10 3 24 7 37 7v37c4 10 11 27 34 31h31l10 122H460l173 1618c-27-24-224-99-383-62 37 85 152 231 162 306-149 47-277 118-261 237 7 44 31 339 184 519 108 105 278 125 478 88h3v64c-7-3-10-10-30-13-14 0-65 3-79 3-13 24-3 58 34 68 7 4 14 7 24 14 14 6 21 17 27 30 3 14 0 21 0 37 0 28 14 41 51 41 7 24 31 51 79 51 47-3 67-34 74-61 24-3 34-10 44-24 3-7 3-20 0-27-10-37 7-61 31-71 51-20 54-48 40-78-30 3-57 3-77 7-11 3-24 10-31 17l-3-99c176-34 288-44 430-47v88c0-6-7-13-30-20-14 0-65 0-79-4-16 24-9 58 25 72 9 3 13 6 27 13 10 7 20 17 23 31 4 13 0 20 0 37-3 27 14 40 51 44 0 7 7 17 14 27 10 14 30 27 57 27h14c27 0 47-13 58-27 6-10 13-20 13-27 37-4 54-17 51-44 0-17-3-24 0-37 3-14 13-24 24-31 13-7 17-10 27-13 34-14 40-48 24-72-14 4-65 4-78 4-24 7-31 14-31 20v-88c143 3 254 13 431 47m237-681-16 247c125 18 230 24 284 14-3-41-40-99-84-132-65-58-143-106-184-129m-1527 0 18 247c-126 18-231 24-285 14 3-41 40-99 85-132 64-58 142-106 182-129m221 81 4 136c112-17 223-34 349-48-129-13-241-37-353-88m1086 0-4 136c-112-17-224-34-349-48 129-13 241-37 353-88m519-3221c-82 40-187 3-248 88-37 51-54 145-112 172-71 38-200 82-214 167-13 84 17 190 105 234 7 6 24-4 18-17-18-48-14-109 10-150 6 65 20 105 57 139 4 4 7 4 14 0 3-3 7-6 3-13-6-54 7-156 89-234-27 102-17 170 23 244 7 10 21 10 24-3v-10c4-45 24-92 75-136-10 27-41 109-4 170 0 3 0 6 7 10 4 3 14 0 21-4 40-10 64-34 71-71 13-51 13-81 54-146 51-91 17-153 4-244 0-14-21-17-24 0-4 10-28 125-129 143 37-48 51-65 61-119 17-85 68-132 112-200 17-24-4-34-17-20m-1530 0c-81 40-187 3-248 88-37 51-51 145-112 172-71 38-200 82-214 167-13 84 18 190 109 234 3 6 21-4 14-17-17-48-14-109 13-150 3 65 17 105 55 139 3 4 10 4 13 0 7-3 7-6 7-13-7-54 3-156 85-234-27 102-14 170 27 244 3 10 17 10 20-3v-10c3-45 24-92 75-136-10 27-40 109-3 170 3 3 3 6 10 10 3 3 14 0 20-4 38-10 61-34 68-71 14-51 14-81 58-146 47-91 13-153 0-244 0-14-17-17-24 0-3 10-24 125-126 143 34-48 51-65 58-119 17-85 68-132 112-200 17-24-3-34-17-20m756 0c-81 40-186 3-247 88-38 51-54 145-112 172-71 38-200 82-214 167-13 84 17 190 106 234 6 6 23-4 16-17-16-48-13-109 11-150 6 65 20 105 57 139 3 4 7 4 14 0 3-3 7-6 3-13-7-54 7-156 85-234-24 102-14 170 27 244 3 10 20 10 24-3v-10c3-45 23-92 74-136-10 27-44 109-3 170 0 3 0 6 7 10 3 3 13 0 20-4 41-10 64-34 71-71 14-51 14-81 54-146 51-91 18-153 4-244 0-14-20-17-24 0-3 10-27 125-129 143 34-48 51-65 61-119 17-85 68-132 109-200 20-24 0-34-14-20"/></g><g class="com.sun.star.drawing.ClosedBezierShape"><path fill="none" d="M659 1487h1603v1799H659z" class="BoundingBox"/><path fill="#1b1918" d="M1057 1497c3-10 10-13 20-4 20 21 41 41 47 68 7 31-6 65-50 146-17 41-21 54-24 75 10-21 44-48 71-71 10-14 21-28 27-48 3-17 14-24 24-7 61 71 44 116 41 143-28 71-51 112-38 156 4 13-3 20-13 17-44-14-68-48-78-88-21 36-10 71 10 102 10 10 3 20-10 16-54-10-88-44-106-85-6 41 14 85 52 119 16 11 6 24-11 21-57 0-91-24-108-37 7 27 20 54 67 77 4 4 4 4 7 4 7 3 7 13-7 20-50 14-91 7-128-3-95-27-150-78-180-146-23-79-6-140 41-177 34-27 71-27 101-37 31-10 58-31 82-81 17-41 44-72 81-96 24-16 41-23 55-37 16-13 23-30 27-47m220 465c-27-35-58-28-88 0l-99 91-98 88c-30 27-41 58-7 89-27 30-37 47-16 74 9 17 23 31 40 48 17 10 37 13 75-14 24 27 54 21 78-3l183 163c-58-21-98-31-163-45-85-13-163-3-227 24-98 44-163 99-180 156-27 92 17 204 116 268 47 34 101 61 152 89 78 41 139 84 183 146 10 16 21 0 24-7 13-31 20-78 7-143-7-34-17-51-31-64-13-14-27-24-34-41-10-23-17-51-10-85 17-75 81-88 146-78 95 17 180 68 248 112l24 112c3 10 3 10 13 10l105 34c11 14 27 34 31 54 3 14 10 24 0 58-17 34-92 34-119 41-13 3-24 7-34 10-24 10-37 24-44 44-7 17 0 41 11 71 0 4 9 11 16 4 7-17 24-34 41-37 34-7 58 0 71 6 61 24 105 48 146 48 24 0 44-7 61-21 17-13 27-30 34-51 30 21 61 27 122 41 41 4 85 7 126 10h13v-3c3 0 3-3 3-14 4-41 4-84 0-125-3-64-10-95-27-125 21-4 41-14 55-31 13-14 23-34 27-58 3-41-17-85-38-150-3-13-10-37 0-71 7-16 28-30 41-37 10-7 7-17 0-17-27-14-51-20-71-17-21 3-34 17-48 37-3 11-10 24-13 34-7 31-21 105-51 116-37 7-51 0-61-4-21-7-37-23-48-34l-23-112c0-6 0-10-7-10l-112-37c-37-71-81-163-88-258-3-64 13-125 91-135 34-7 61 3 82 17 20 6 24 23 41 37 10 13 27 27 57 37 65 21 112 17 146 7 7-4 24-13 7-24-58-47-95-115-129-196-24-51-44-109-71-160-58-105-166-159-258-139-58 10-119 71-173 166-34 62-47 136-44 221 10 68 14 108 27 169l-143-200c27-23 34-51 10-78 31-34 31-54 21-71-14-17-27-34-41-47-27-21-47-11-78 10"/></g><g class="com.sun.star.drawing.ClosedBezierShape"><path fill="none" d="M494 1005h2064v3393H494z" class="BoundingBox"/><path fill="#d49d00" d="M2462 1005h-360c-3 0-3 3-3 3v28c112-4 244-4 366 0v-28c0-3 0-3-3-3m-333 3392c-30-4-57-28-54-55 0-27 27-47 61-47 34 3 58 27 54 54 0 27-27 51-61 48m-604-68c-34 0-64-24-64-51s30-51 64-51 61 24 61 51-27 51-61 51m-604 68c34-4 58-28 58-55-3-27-31-51-65-47-30 0-54 27-54 54 4 27 31 51 61 48m177-228h-20c-7 0-14 4-21 4-13 0-24 3-30 3-7 3-14 10-18 10-6 14-17 24-24 34-9 13-16 24-27 31l-13-11c7-23 20-57 24-81-7-10-17-17-31-24-10-7-20-10-30-13-14 6-24 10-34 17-10 13-17 17-21 30 4 24 17 51 27 75l-10 10c-10-3-20-14-33-24-7-10-18-20-25-30-3-3-9-7-16-10h-51c-17 0-24 3-24 0-3 23 24 37 27 37 17 3 34 13 41 20 23 20 27 44 23 75 0 7 0 17 14 20 4 3 11 3 17 3 0-13 7-27 14-37 13-17 34-30 57-30 28 0 48 7 62 24 9 6 16 20 20 37 7-3 13-3 17-7 14-7 10-17 10-24-7-30-7-54 14-75 7-6 24-20 37-23 7-4 31-20 24-41m-129-84 3 50c-10-10-20-17-34-20-10-3-20-7-30-10h-4c-10 3-20 7-30 13-10 7-21 14-28 24v-30c41-11 82-18 123-27m363 30h51c14 0 23 3 30 7 7 3 11 10 14 13 10 10 13 17 24 28 10 10 16 20 27 23l10-10c-10-20-17-48-24-71 7-7 14-17 27-27 11-7 21-14 34-17 14 3 27 10 38 17 9 7 20 16 23 30-3 20-14 48-23 68l9 10c11-3 21-13 31-27 10-10 17-20 27-31 4-3 10-6 17-10 7 0 17-3 31-3h40c7 20-20 37-27 37-13 7-30 17-37 24-20 21-24 44-17 75 0 6 0 13-13 20-4 0-11 3-18 3-3-17-6-23-16-34-14-16-38-27-61-27-21 0-45 4-65 24-7 7-13 17-17 34-10 0-17-4-20-4-14-6-10-13-10-23 3-31 0-47-20-68-4-7-18-17-35-24-3 0-37-17-30-37m129-85c20 0 41-3 64-3 24 0 44 3 65 3v51c-18-20-31-27-65-37-34 10-47 20-64 37zm491 139h24c4 0 11 4 20 4 14 0 24 3 31 3 7 3 14 10 17 10 7 14 14 24 21 34 10 13 20 24 30 31l10-11c-6-23-16-57-20-81 4-10 14-17 27-24 11-7 20-10 34-13 10 6 20 10 31 17 13 13 17 17 23 30-6 24-20 51-30 75l10 10c10-3 24-14 34-24 7-10 17-20 24-30 3-3 13-7 20-10h51c14 0 20 3 20 0 7 23-24 37-27 37-17 3-34 13-40 20-21 20-28 44-24 75 0 7 3 17-14 20-3 3-7 3-17 3 0-13-3-27-13-37-14-17-34-30-58-30s-47 7-61 24c-10 6-17 20-17 37-10-3-14-3-17-7-14-7-14-17-14-24 10-30 7-54-13-75-4-6-21-20-38-23-3-4-30-20-24-41m130-84v54c3-4 17-14 34-24 7-3 16-7 27-10h7c10 3 20 7 27 13 10 7 20 14 27 24l3-30c-44-11-84-18-125-27m162-720 18 14-21 261c-47-6-95-13-146-20l7-159c51-27 95-55 142-96m-1438 0-14 11 20 264c48-6 96-13 143-20l-3-159c-44-24-88-48-129-82-7-7-11-10-17-14m1598-2075h-244l-4 125h238zm-998 0h245l-4 122h-237zm-760 0h245l3 122H657zm-50-34h362v-31c-115 4-244 4-369 0v27c0 4 3 4 7 4m749 0h363v-31c-115 4-244 4-369 0v27c0 4 3 4 6 4m1117 0h-363v-31c112 4 244 4 369 4v27zm-89-190h-196c-17 0-119 0-150 10-24 3-24 24-24 34v48c4 20 14 27 38 33 34 4 98 7 136 7h200c27 0 105-3 139-7 34-6 37-13 40-30v-54c-3-21-10-31-33-34-31-7-129-7-150-7m-940-3h194c20 0 118 0 149 13 24 3 24 21 24 34v48c0 20-10 27-37 30-34 7-99 7-133 7h-203c-27 0-102 0-139-7-34-7-37-10-37-30-4-17-4-34 0-54 0-21 6-28 34-31 27-7 125-10 148-10m-753 0h194c20 0 118 0 149 13 24 3 24 21 24 34v48c0 20-14 27-38 30-33 7-98 7-132 7H673c-27 0-101 0-139-7-33-7-37-10-37-30-3-17-3-34 0-54 0-21 7-28 34-31 27-7 126-10 149-10m-84-58h359s3 0 3 3v28c-115-4-244-4-369 0v-28c0-3 3-3 7-3m749 0h360c3 0 3 0 3 3v28c-112-4-244-4-366 0v-28c0-3 0-3 3-3"/></g><g class="com.sun.star.drawing.ClosedBezierShape"><path fill="none" d="M676 1307h1702v2332H676z" class="BoundingBox"/><path fill="#aa7500" d="M2376 1310h-41l-3 105h41zm-149 2070c-7 7-14 13-24 17l-10 237c7 0 13 3 23 3zm-1405 0c11 7 17 13 24 20l10 234c-6 0-13 3-20 3zm48 34c7 7 17 10 23 17l7 197c-7 3-13 3-20 3zm41 27c7 3 16 7 23 14l7 166c-7 3-14 3-23 3zm1227 0c-6 3-13 7-20 10l-10 170c10 3 17 3 24 3zm45-27c-11 7-17 10-24 13l-10 201c7 0 17 3 23 3zM677 1307h40l4 105h-41zm74 0h41l3 105h-41zm75 0h44l3 105h-40zm603 0h41l4 105h-45zm75 0h41v105h-41zm75 0h41v105h-41zm644 3h-40l-4 105h41zm78 0h-44l-3 105h41z"/></g><g class="com.sun.star.drawing.ClosedBezierShape"><path fill="none" d="M191 1442h2668v2663H191z" class="BoundingBox"/><path fill="#005487" d="M2756 2989c-62-3-122 0-183 14-58 13-102 31-160 58l-10 95c0 3-7 20-10 27 64 33 135 57 217 85 10-34 17-65 47-112 31-55 71-112 99-167M1057 1497c3-10 9-14 20-3 20 20 40 40 47 67 7 31-7 65-51 146-16 41-20 54-23 75 10-21 43-48 71-71 10-14 20-27 27-48 3-17 14-24 24-7 60 71 44 116 40 143-27 71-50 112-37 156 3 13-3 20-13 17-45-14-69-48-78-88-21 37-11 71 9 101 11 11 4 21-9 17-55-10-89-44-106-84-6 40 14 84 51 118 17 10 7 24-10 21-58 0-92-24-108-38 7 27 20 54 67 78 4 4 4 4 7 4 7 3 7 13-7 20-51 14-91 7-128-3-96-28-150-79-180-146-24-78-7-139 41-177 34-27 70-27 101-37s58-31 81-81c18-41 45-71 82-95 24-17 41-24 54-37 17-14 24-31 28-48m220 465c-27-34-58-28-88 0l-99 91-98 88c-31 28-41 58-7 89-27 30-37 47-17 74 10 17 24 31 41 47 17 11 37 14 75-13 23 27 54 20 78-3l182 162c-57-20-98-30-162-44-85-13-163-3-227 24-99 44-163 98-180 156-27 92 17 204 115 268 48 34 102 61 153 88 78 41 139 85 183 146 10 17 20 0 24-7 13-30 20-78 7-142-7-34-18-51-31-64-14-14-27-24-34-41-10-24-17-51-10-85 17-75 81-88 146-78 95 17 180 68 248 112l23 112c4 10 4 10 14 10l105 34c10 14 27 34 31 54 3 14 10 24 0 58-17 34-92 34-119 41-14 3-24 6-34 10-24 10-37 24-44 44-7 17 0 41 10 71 0 4 10 10 17 4 7-18 24-34 41-38 33-7 57 0 71 7 61 24 105 47 146 47 23 0 44-6 61-20s27-30 34-51c30 21 61 27 122 41 41 3 84 7 125 10h14v-3c3 0 3-4 3-14 4-40 4-85 0-125-3-65-10-95-27-126 20-3 41-13 54-30 14-14 24-34 27-58 4-41-16-85-37-149-3-14-10-38 0-72 7-17 27-31 41-37 10-7 7-17 0-17-27-13-51-20-71-17-21 4-34 17-48 37-3 10-10 24-13 34-7 31-21 106-51 116-38 7-51 0-61-4-21-6-38-23-48-34l-24-112c0-6 0-10-6-10l-112-37c-37-71-82-163-88-258-4-64 13-125 91-136 34-7 61 4 81 18 21 6 24 23 41 37 11 13 27 27 58 37 64 20 112 17 146 7 7-3 23-14 7-24-58-47-95-115-129-197-24-51-44-108-71-159-58-105-167-159-258-139-58 10-119 71-174 166-34 61-47 136-44 220 10 68 14 109 28 170l-143-200c27-24 34-51 10-78 31-34 31-54 21-71-14-17-27-34-41-48-27-20-48-10-78 11m217-519h1058c-57 569-122 1129-179 1696-58 122-150 210-262 271-105 57-227 95-362 112-92 10-105 13-190 13h-65c-85 0-98-3-190-13-139-17-258-55-363-112-112-61-203-149-261-271-58-567-122-1127-180-1696zM294 2989c57-3 115-3 179 14 58 10 112 34 163 61l10 88c0 4 7 21 10 31-64 33-132 54-214 81-9-34-20-61-47-112-34-54-71-108-101-163m-102 587c64 44 135 78 210 98 88 21 186 27 271 14 190-21 261-34 444-61 153-24 285-37 407-37 123 0 255 13 408 37 183 27 257 40 447 61 85 13 180 7 272-14 71-20 145-54 207-98-21 112-55 217-96 322-30 54-43 72-68 105-43 38-84 65-159 85-88 21-176 21-285 3-67-20-146-30-227-50-108-17-213-31-322-38-57-3-115-6-173-6h-7c-58 0-115 3-170 6-108 7-217 21-322 38-84 20-163 30-230 50-116 18-200 14-289-3-77-17-128-54-152-81-28-31-61-89-82-129-40-105-64-193-84-302"/></g><g class="com.sun.star.drawing.ClosedBezierShape"><path fill="none" d="M186 1513h2677v2142H186z" class="BoundingBox"/><path fill="#eceded" d="M1070 1514c-17 44-47 57-98 95-31 20-51 50-71 94-24 45-55 68-92 75-68 10-139 44-132 139 7 109 153 214 285 190-41-20-68-58-68-105 3-14 13-10 17-3 10 13 51 40 101 43-61-57-54-115-40-152 6-10 17-7 17 0 3 13 7 27 17 40 13 18 40 45 71 55-24-41-24-85-3-122 6-17 20-10 20 0s14 67 64 88c-10-54 21-109 27-136 41-85-13-132-20-145-10 27-30 54-68 81-20 17-34 37-47 64-4 14-20 11-20-3 0-58 20-91 27-109 6-16 17-37 27-54 27-47 37-91-14-135M192 3538c-20-81 20-128 71-162 68-38 146-68 234-95 61-21 122-44 180-71 27 47 64 94 105 132-64 44-132 88-207 142-75 58-108 115-115 170-54-11-139-27-268-116m2666-3c17-85-21-125-72-156-64-37-142-71-234-98-57-21-122-41-179-68-31 44-65 91-106 132 68 41 136 85 204 136 75 61 112 112 122 173 54-11 136-27 265-119m-1014-651-38 34c28 27 51 74 71 153 24 74 34 128 116 148 54 14 115 21 183 24h4c3-71 3-132-11-190-14-81-64-94-135-125-78-27-126-54-150-81zm-248-58 220-200 95 31-294 268zm34-58-37 34-10 11c-96-65-181-102-248-112-61-10-109 0-139 34-34 33-38 81-31 122 10 30 27 57 44 71 20 17 31 41 38 81 6 41 0 78-7 105-24-27-48-50-71-71-21-17-45-30-65-44-88-51-190-91-251-156-14-13-27-34-41-54-23-51-34-112-16-156 6-20 23-47 84-92 55-41 119-68 197-75 92-6 183 21 298 54 88 89 167 164 255 248m-451-448 173-155c125 169 254 339 390 498l-98 92c-163-166-320-309-465-435m580 330 44-41c-51-98-85-190-92-255-6-67 14-112 48-142 27-17 54-24 78-24 24-3 44 4 68 14 20 10 37 24 47 40 24 21 27 28 85 45 37 10 71 10 98 3-27-24-47-51-64-78-17-20-27-44-41-68-44-95-71-193-129-261-13-14-33-30-54-44-47-27-105-44-152-27-21 0-51 14-99 75-44 47-75 108-88 186-14 92 3 187 27 305 78 95 142 176 224 272m-675-496c54-47 139-139 210-186 20-10 34-10 41-3 10 6 34 30 44 47 3 10 3 14-4 27-13 17-37 41-54 58-47 44-108 102-159 149-34 31-68 61-95 78-24 17-34 21-44 10-17-14-27-27-38-37-13-14-13-27 4-44 13-20 78-85 95-99"/></g><g class="com.sun.star.drawing.ClosedBezierShape"><path fill="none" d="M981 1955h1255v1314H981z" class="BoundingBox"/><path fill="#c5c7c8" d="m1735 2982 58-54c17 20 37 44 54 109 17 54 27 115 68 162 3 21-24 58-61 65-34 10-64-4-143-38-57-27-115-20-139 18-13-41-6-65 27-79 38-13 79-10 126-27 34-13 41-27 44-67 3-34-10-65-34-89m-369-855c-7 7-14 14-31 27-48 48-139 130-177 163-7 7-13 14-16 14-24 14-38 3-45-7 4-4 17-17 51-40 34-35 85-82 157-150 20-17 37-34 57-51 4 4 7 7 7 14 10 14 3 20-3 30m-377 41c7-7 17-14 30-27 51-48 143-129 180-166 7-7 14-10 17-14 24-13 34 0 44 11-3 3-17 16-51 40-33 34-85 81-156 149-20 14-37 34-57 54-4-6-7-10-11-13-6-14-3-24 4-34m957 597-221 204-95-31 296-271zm-187-115 47-37c-54-102-88-194-91-262-7-61 10-108 44-136 41-30 88-34 125-20 31 10 55 31 69 48 17 20 37 34 78 47 37 10 74 10 105 3l-4-3c-27-3-50-13-74-27s-47-30-68-51c-34-40-72-85-109-129-17-20-41-54-61-61-20-10-44-7-61-3-41 10-81 37-115 122-17 54-38 119-14 231 10 57 61 172 129 278m-129 119-47 44c-95-61-180-102-248-112-61-10-109 3-139 34-34 37-38 85-27 122 3 34 23 54 40 68 17 20 31 44 38 85 6 43 3 81-7 108l-4-7c0-27-6-54-17-78-10-23-23-47-43-68-38-40-79-81-119-118-21-21-51-48-58-68s-3-44 4-61c13-37 40-78 132-105 54-14 118-28 231 3 54 17 162 75 264 153m323 13-58 51c20 17 44 41 105 61 54 20 112 38 156 82 24 6 65-17 75-51 10-31 0-65-27-150-20-57-14-111 27-135-38-14-65-10-78 24-21 37-21 74-41 122-17 30-30 37-71 37-34 0-61-17-88-41"/></g><g class="com.sun.star.drawing.ClosedBezierShape"><path fill="none" d="M505 286h2080v610H505z" class="BoundingBox"/><path fill="#f07c00" d="M2566 286c-81 28-186 7-231 112-16 37-27 65-54 102-7 14-17 24-41 34-64 37-193 82-203 153-10 75 10 150 71 193-10-34-10-111 41-173 10-17 27-6 27 3-7 28-7 99 20 136 4-101 61-203 132-251 18-10 24 7 18 14-7 20-14 37-21 54-13 61-10 119 14 180 10-51 41-98 112-146 20-14 27 7 16 17-27 58-50 139-20 180 61-14 54-64 68-119 10-34 10-34 58-112 20-54 6-85-4-159-10 17-44 105-142 118-24 4-41-3-24-23 27-41 51-68 64-116 11-82 55-129 99-197m-1527 0c-84 28-189 7-230 112-17 37-27 65-54 102-10 14-17 24-41 34-64 37-193 82-207 153-6 75 10 150 72 193-11-34-11-111 43-173 11-17 24-6 24 3-3 28-3 99 24 136 0-101 61-203 129-251 17-10 24 7 17 14-7 20-14 37-17 54-17 61-14 119 10 180 14-51 41-98 115-146 17-14 24 7 17 17-30 58-51 139-23 180 64-14 54-64 71-119 7-34 10-34 54-112 20-54 7-85-4-159-9 17-40 105-142 118-20 4-37-3-24-23 27-41 55-68 65-116 10-82 54-129 101-197m754 0c-82 28-187 7-231 112-17 37-27 65-54 102-7 14-18 24-41 34-65 37-193 82-204 153-10 75 11 150 72 193-11-34-11-111 40-173 10-17 27-6 24 3-3 28-3 99 24 136 3-101 61-203 133-251 16-10 23 7 16 14-7 20-13 37-20 54-14 61-11 119 13 180 11-51 41-98 112-146 21-14 28 7 18 17-28 58-51 139-21 180 61-14 55-64 68-119 10-34 10-34 58-112 20-54 6-85-7-159-7 17-41 105-139 118-24 4-41-3-24-23 27-41 51-68 61-116 14-82 58-129 102-197"/></g><g class="com.sun.star.drawing.ClosedBezierShape"><path fill="none" d="M333 3673h2377v362H333z" class="BoundingBox"/><path fill="#eceded" d="m442 3745 4 85-7-3c-3-17-6-31-10-41-7-10-10-17-21-24-6-10-13-14-23-17-10 0-17 0-20 7-7 3-7 10-7 21 0 6 3 13 7 20 6 10 20 23 40 44 21 17 31 27 37 37 7 7 14 17 18 24 3 10 6 20 6 30 4 18-3 31-13 42-11 10-20 13-38 10-7-4-13-7-16-7-4-3-11-7-21-14-7-3-13-7-17-10 0 0-3 0-3 3v11l-10-4-4-81 7 3c3 17 7 31 10 40 7 7 14 18 20 25 11 6 18 13 27 13 11 4 21 4 25-3 6-4 9-10 9-21-3-7-3-14-6-20-3-3-7-10-14-17-3-7-14-14-30-31-14-17-27-27-34-37-7-7-14-17-17-24-4-10-7-20-7-30-3-18 3-31 14-38 10-10 20-13 37-7 10 0 20 7 30 17 7 4 11 7 11 7h7c0-3 0-7 3-10zm913-71 4 81h-11c0-13-3-27-6-34-7-10-14-17-21-20-10-3-17-7-27-7-10 4-17 7-23 13-7 7-7 18-7 24 0 7 0 14 3 21 7 6 20 17 44 27 17 10 31 21 37 24 7 7 14 13 17 24 4 7 7 17 7 23 0 21-7 34-17 48-13 14-27 23-48 23h-13c-3 0-10 0-20-3s-17-3-17-3c-4 0-4 0-7 3 0 0 0 3-3 10h-7v-81h7c3 17 6 27 10 37 7 7 10 14 20 17 7 4 17 7 27 7 14-3 24-7 31-14 7-10 10-16 10-27 0-6-3-10-7-17 0-6-6-10-10-13-3-3-17-10-34-21-17-10-27-16-34-23s-13-14-17-20c-3-7-6-18-6-28 0-17 6-31 16-44 11-14 24-21 41-21 10-3 24 0 34 7h17c3-3 3-7 3-13zm282 132-4 68c0 14 0 24 4 27 3 4 6 7 13 7h10v10l-84-6-68 3v-10c7 0 13 0 13-4 4-3 7-7 7-10-3-3-3-10-7-24l-13-30h-75l-14 37c-3 7-3 14-3 20 0 4 0 4 3 7 4 4 11 4 21 4v10h-64v-7c6-3 13-3 16-7 4-7 7-17 14-34l68-190h7l71 190c7 17 10 24 17 31 3 3 10 7 17 7 6 0 10-4 13-7 4-4 4-14 4-24l3-153c4-14 0-20 0-23-7-7-10-11-17-11h-10l4-7 71 4c17 0 30 3 40 7 10 7 21 13 28 23 6 11 9 24 9 38 0 21-6 34-16 48-14 10-27 13-48 13h-17c-3-3-10-3-13-7m173 112-4 10-84-7v-9h9c7 3 11 0 18-4 0-3 3-14 3-27l17-150v-24c0-3-4-3-4-6-6-3-10-3-13-7h-10l3-10 85 10v7h-10c-7 0-14 3-17 6 0 4-4 11-4 28l-16 149v24c0 4 3 4 6 7 0 0 4 0 4 3h17m101-197-7 89 41 6q15 6 21 0c6-6 10-13 13-27h7l-10 82h-7v-24c-3-3-3-7-10-10-4-3-7-3-17-7l-41-7-6 82c-4 10-4 13-4 16 0 4 4 4 4 7 3 0 6 0 9 4l34 7h24c7 0 10-11 17-14 7-7 14-13 21-27h6l-24 58-152-24 3-11 7 4h14c3-4 3-4 7-7 0-3 0-10 3-24l17-152c0-17 0-24-4-28 0-7-7-10-13-10h-7v-10l153 31-4 51h-10c0-14 0-24-3-28 0-6-4-10-7-13-7 0-14-4-20-4zm479 286 3-10h7c7-4 14-4 17-11 3-3 7-13 7-27l17-156c3-14 3-21 0-24 0-3 0-6-4-6-3-4-7-4-13-4h-7v-11l88-3v7l-10 4c-7 0-13 3-17 7-3 3-3 13-7 27l-17 159v21c0 3 4 6 4 6 6 4 10 4 13 4h7c10 0 17-4 20-7 4-7 11-20 14-31l47-194 4-10 108-34 11 55h-7c-4-11-7-21-11-24-3-3-3-7-6-7-4 0-10 0-17 4l-38 10 14 88 31-10c6 0 10-3 13-10 3-4 3-14 3-27l7-4 11 82-7 3c-4-10-4-20-7-20 0-4-4-7-7-7-3-3-7-3-13 0l-31 10 10 71c3 11 3 14 7 18v3h10l24-7c7-3 10-3 17-10 3 0 3-7 7-11 3-9 6-23 10-37l7-3-4 65-115 34v-10h7c3-4 6-4 6-7 4-4 4-4 4-11v-20l-10-71-44 13-24 82c-4 10-4 17 0 20 3 4 13 4 24 4v6c-65 14-102 21-163 21m-356-279 50 7 89 183 13-129c4-13 4-23 0-27-3-4-7-7-13-7l-7-3v-7l65 7v10l-7-4c-7 0-14 4-17 8-4 3-4 10-4 23l-24 197h-6l-99-197-13 136v27c3 7 6 11 13 11h7v10l-65-10v-11h7c11 4 14 0 17-3s7-10 7-24l17-159c-3-11-7-14-10-18-4-3-7-6-11-10h-13zm373 30-4 58h-6c0-10 0-16-4-20-3-10-7-14-10-17s-10-3-20-3l-24-3-10 183c-4 17 0 24 0 27 3 7 10 10 17 10h6v7l-84-3v-7h17c3-4 6-4 6-7 4-7 4-13 7-27l11-183h-45l-13 13c-4 7-4 14-7 27l-7-3 7-58zm173 8-14 44-10 47 37-10-10-61c0-10 0-17-3-20m-1076 57-33-92-31 92zm133-27c3 0 6 4 10 4h10c10 0 20-4 27-11 7-10 10-20 10-37 4-10 0-17-3-27-3-7-7-14-14-18-6-6-13-6-20-9-7 0-10 3-17 3zm-519-82 10 82-7 4c-3-18-10-27-13-38-7-7-14-14-24-17-7-3-17-3-24 0-10 0-17 3-24 13-3 11-6 18-6 28 3 7 3 10 10 17s20 13 44 24c20 10 34 13 41 20 7 3 13 10 20 17 3 10 7 17 7 27 3 17 0 34-11 51-9 14-23 24-40 28h-37c-11-4-14-4-17-4-4 0-4 4-7 4v10l-7 3-10-82h7c3 14 10 27 13 34 7 7 14 14 24 17 7 4 17 4 27 4 10-4 20-10 27-17 7-11 7-21 7-31-3-3-3-10-7-14-3-6-7-10-13-13-4-3-17-7-34-17-17-7-31-14-38-17-10-7-13-13-20-20-3-7-7-17-7-27-3-14 0-31 11-45 6-13 20-24 37-27 10-3 23-3 34 3h13s4 0 4-3c3 0 3-7 3-10zm-221 62 3 88 45-7c10 0 17-3 20-7 3-6 7-16 7-30h7l3 81h-7c0-10-3-17-3-20-4-3-7-7-10-7-3-3-10-3-17 0l-45 7 4 75c3 10 3 17 3 17 0 3 4 3 4 3 3 4 6 4 10 0l34-3c10-3 20-3 24-7 3-3 10-7 14-14 6-6 9-20 16-34l7-3-14 65-152 23v-6l6-4c3 0 10 0 14-3 3-4 3-7 3-10 4-4 4-10 4-21l-11-149c0-17 0-24-3-28-4-3-7-6-17-3h-7v-6l154-28 3 55h-7c-3-11-7-21-7-24-3-3-7-7-14-10-3 0-9 0-16 3zm-241 258-3-10h10c7-3 14-7 14-10 3-7 3-14 3-28l-10-149c0-14 0-21-4-24-3-7-10-7-17-7l-6 4v-10l77-11c28-7 48-3 62 0 17 7 27 21 37 38s17 37 17 61c3 30-4 61-20 85-14 27-41 44-78 48zm55-27h27c20-4 37-17 50-37 11-21 17-45 14-76 0-30-10-57-24-71-13-17-30-23-54-20-7 0-17 3-27 10zm-191-207 7 88 41 6c13 0 20 0 24-3 3-3 7-13 3-27h10l7 85h-10c0-14-3-21-3-24-4-4-7-7-11-10-3-3-10-3-16-7l-45-3 7 75v17c4 3 4 3 7 6h10l34 7h24c3 0 6-3 13-10 4-3 10-14 14-27h10l-14 57-156-20v-10l7 3c7 0 10 0 14-3 3 0 3-3 3-7 4-3 4-10 0-20l-10-150c0-17 0-23-3-27-4-7-11-10-17-10h-10v-10l155 20 7 54h-10c0-13-3-23-7-27-3-3-6-7-10-10-3-3-14-3-20-7z"/></g></g></g></g></g></svg>