<svg xmlns="http://www.w3.org/2000/svg" width="500" height="725">
  <path fill="#c41b1b" d="m250 0 4 2 1 5h2l6 4-1 4-3 1-4 2-1 6 2 1q5 1 6 7l1 4-3 1v2l3 1q11 2 21 9l4 3v-3l3 1 2 5q3 5 8 9l1-2 2-2h2l3 17q-1 4 3 6v16q0 5 3 8 0 8-5 15l-3 1 3 16-3 2v7l-2 2q0 4 3 8 1 5-2 9l-2 2h-2l1 2 1 4v3q2 7-3 14-8 7-20 8l6 17q4-1 8-3l1-1 13-7 3-2 6-5-1-1q-11-13-8-30 3-10 11-16 11-8 24-7 11 5 17 15l1 11q9-8 12-19 2-6 6-6h4q6 0 10-5l7-10 5-4h9l1-3q3-7 9-9 8-4 11-12l4-4h7l1-4h2l2-1h3l4-3h5q3 2 2 5v3l-2 1-3 4v2l-2 2-1 5v5q3 2 7 1h7c5 4 12 12 13 18l1 3v4l2-2q4 0 6 3 7 7 7 17-3 8-11 12l-5 2-3-6h-2v2c1 9 1 9-2 13q-4 5-11 6c-10-10-10-10-10-17l1-4-3 2-5-2v7h4q7 6 10 14l-2 7c-9 9-9 9-15 9l-4-6h-2l1 3v9l-13 11h-2c-10-10-10-10-10-17l1-3v-3l-1 2-2 1q-4 0-6-3l-1-1-2-3-2-2-1-2q-7-6-6-15v-6l-2 1q-4 3-8 3-20 8-35 26l-2 5 2 4q6 8 5 18h59v101l11 1q32 8 50 35 16 29 9 62l-7 19 3 2q6 3 8 9l1 8 1 3v6l-4 2-7-1h-4q-5-1-8-6v4l1 17v22q1 25-7 50-4 12-3 23v10c-2 17-2 17 1 33q4 12-2 24-3 12 1 24 1 5-2 8c-9 7-22 5-33 4l-11-4q-4-9-3-19v-10l-7 8q-15 14-34 23l-15 10q-10 7-21 9-7 2-14 6-16 9-35 7l-9 2q-15 8-31 3l-5-2-12-1q-22-2-42-10l-13-5q-12-2-22-8l-3-1-17-11-10-7q-11-7-20-18l1 3-2 14-2 10-4 5-7-1q-12-2-24 1h-8q-4-2-4-6v-10q1-12-2-22-5-20 1-37 3-12-1-23v-7q0-7-4-13-12-25-7-54l-1-14q-2-13-2-26l-2 1q-4 3-9 1-6-4-9-12l2-8 5-1v-3q0-3 2-5l2-2 2-2-1-2a72 72 0 0 1-10-52 80 80 0 0 1 20-35q20-20 48-25h5V229h58l1-9 2-5 2-8-7-8c-9-8-22-20-34-20l-5 1-5-1v3c1 11 1 11-1 14l-6 5-3 4-3 3-7-3v2q2 7-2 12l-8 8q-9-4-15-11l-1-10-4 4q-8-3-13-10v-11l2-3-1 2-2 2-2 2-5 3-6-4-2-2q-5-3-5-10v-5l-4 5q-8-3-14-10-2-6 1-12l9-11 5 2v-4q3-12 14-21h13l-1-7-2-2q-3-1-4-6v-3l-3-1v-7q2-2 5-2l3 1h4l6 2 1 4h3q6 1 10 5l1 6h2q10 3 16 12 3 4 2 8h3q7 0 13 6l4 5q4 5 11 5h2l5 1 1 4 3 1v3q2 7 8 13h1v-2q3-9 12-16 9-5 20-2 14 3 21 14c4 12-2 26-6 38l2 1 29 16 5-19h-3q-10-3-19-10-3-8 0-16l1-2v-3l-2-1-3-2 1-9h2q0-4-4-6l1-10h-4v-2q3-6 2-14l-2-3-2-8-3-4 1-11 2-14q0-4 2-7l2-1 1-3h-2q0-8 5-13l3 2v3h2l3-6 7-10 1 4 2-1q10-7 21-11l7-3-3-2q-1-5 2-8l5-5v-7h-5v-2l-3-1v-5q2-3 6-3V4q2-4 7-4m77 161q-4 8-2 16 3 7 8 13 5 0 9-3t3-8q0-6-6-11zm-165 4-3 1q-6 4-7 10l1 10 10 7q5-1 7-7l2-2q4-9 1-19l-1-2q-6 0-10 2m-110 5 1 2Zm-3 4-1 1-6-2 2 10 2-2 2-2 4 1v-8zm194 31-1 4-2 4-1 3-1 2v2l-2 4h27l-6-19zm-76 18-2 6h7l-4-6zm167 0-4 6h6l-1-6zm82 127v47q6 0 7-5l1-4 4-2 7 1q3-4 2-8-6-17-20-29zM75 366q-7 7-7 16l2 11h7l5 4 3 5q0 3 5 6v-48q-9 0-15 6m381 6v3l-5 21 2 1 14 15h1q1-21-10-39zm-405 8q-10 12-10 28l2-1 16-10-1-2q-4-7-6-15zm365 26v8l5 4q5 6 5 14l-3 7q6 3 11 2l11-8q6-3 14-4 0-7-3-12-5-5-12-6l-1 2-3 4h-7l-3 1-8-1-2-6zM52 422q-2 5-2 11l2 1q5 2 10 6 11 2 24 0h4v-3l-7-3q0-6 4-11l-1-4-6 3h-7l-2-3-2-3q-11-2-17 6m364 31v11h3l1-8zm-11 58-1 2q-17 36-45 65l-2 2c-25 26-60 41-95 42a161 161 0 0 1-139-71l-1-2q-13-17-21-37l-2 1-2 10v24l1 15c0 15 0 15 8 27l25 30q5 6 12 10l3 4q2 3 6 5l11 7q14 8 30 12 11 1 18 8 5 2 11 3l21 3q12 4 25-1l13-1q16-1 28-10l13-4q12-2 21-11l13-8q8-3 13-10l5-5 10-10 3-5 1-2 5-5q8-10 12-21l3-5q6-9 4-19l-1-4-5-39z"/>
  <path fill="#036ab4" d="M416 414q9 5 11 14 0 6-3 11 6 2 12 0l9-7q5-4 10-3l3-1 4 3q4 6 3 11v7l1 5q6 24 4 49v10q1 27-7 50-4 12-3 23v10c-2 17-2 17 1 33q4 12-2 24-3 12 1 24 1 5-2 8c-9 7-22 5-33 4l-11-4q-4-9-3-19v-10l-7 8q-15 14-34 23l-15 10q-10 7-21 9-7 2-14 6-16 9-35 7l-9 2q-15 8-31 3l-5-2-12-1q-22-2-42-10l-13-5-25-9-17-11-10-7q-11-7-20-18l1 3-2 14-2 10-4 5-7-1q-12-2-24 1h-8q-4-2-4-6v-10q1-12-2-22-5-20 1-37 3-12-1-23v-7q0-7-4-13-12-25-7-54l-1-14c-4-18-1-36 1-54h2v-2l-1-11q0-4 3-6 6-2 11-1l7 5q12 4 26 1l5 1q-1 4-3 7-4 9-3 19v12l6 1 1 4 6 18q3 10 0 22v27l1 13c0 14 0 14 8 26l5 5 2 3 5 7q3 5 8 9l5 6q5 6 12 10l3 4v2h2l8 4 3 2 7 5q12 7 26 9 11 2 18 9 5 2 11 3l21 3q12 4 25-1l13-1q16-1 28-10l13-4q12-2 21-11l13-8q8-3 13-11l7-6h2l1-2 6-8 19-30 3-5q6-9 4-19l-1-4-2-20-1-4-1-7q-3-12 4-22 6-10 5-21v-12h4v-6l-2-4q-4-4-2-10v-23z"/>
  <path fill="#fbfbfb" d="M91 230h38q-1 6-5 11h-2v2h5l-2 6h2l2 1 1 2q3 1 5-2h5l-1-2-2-4h5v-2l-2-1q-4-2-5-8v-3h14l1 5q2 13 12 21l7 3v4l-18 2 1 2 11 1h6q0 11-7 19h-2v2h5l-3 7h5l1 2h4l1-2h6v-2l-3-1v-3h5v-2h-2q-4-4-5-10l-1-10h3l14-2 1-2h-18v-3l20 1v221l-46-1-11-1h-3l-1-7v-2l1-9h-3l-1 18q-11 3-24 2H93l-1 2-1-6h-6l-1-16v-3q0-7 4-14 3-4 2-9h-3l-5-3q-1-4 2-9l2-2v-4l-6 4h-7l-4-5v-2c-8 1-8 1-15 4q-3 6-4 13l-2 1h-2l-3 1-3 3v15h-2v10l-1 3-1 15q-5 3-12 2-6-4-9-12l2-8 5-1v-3q0-3 2-5l2-2 2-2-1-2a72 72 0 0 1-10-52 80 80 0 0 1 20-35q20-20 48-25h6zM75 366q-7 7-7 16l2 11h7l5 4 3 5q0 3 5 6v-48q-9 0-15 6m-24 14q-10 12-10 28l2-1 16-10-1-2q-4-7-6-15z"/>
  <path fill="#fbfafa" d="M320 201q7 4 11 10l2 3 2 9-5 6 35 1-6 11h-2v2h5l-2 6h2l2 1 1 2q3 0 5-2h5l-2-2-1-4h5v-2h-2c-4-5-4-6-4-12h37v15h-2l-1 19-18 2 1 2 11 1h6q0 11-7 20h-2v2h5l-3 7h5l2 3 3 1v27l-2 10-1 7v6l-4 1h-4l-3 1-6 1-1 2 18 1q0 12-8 21h5l-4 8h5l2 3 3 1v27q0 7-2 12l-1 6v6q-8 3-17 2v2l7 1h10q1 9-5 17l-2 2 4 1-3 7h5l1 3 2 1-1 5q-19 0-38-2v-8l-1-5 1-5h-3l-1 18-8 1-1 1h-46l-6-2v-80h3v-3h-3v-88h5v-3h-5v-80h-5v-2h-10l-1-6 23-15 3-2 3-1z"/>
  <path fill="#0b0707" d="m462 91 4 2v6l-2 1-3 4v2l-2 2-1 5v5q3 2 7 1h7c5 4 12 12 13 18l1 3v4l2-2q4 0 6 3 7 7 7 17-3 8-11 12l-5 2-3-6h-2v2c1 9 1 9-2 13q-4 5-11 6c-10-10-10-10-10-17l1-4-3 2-5-2v7h4q7 6 10 14l-2 7c-9 9-9 9-15 9l-4-6h-2l1 3v9l-13 11h-2c-10-10-10-10-10-17l1-3v-3l-1 2-2 1q-4 0-6-3l-1-1-2-3-2-2-1-2q-7-6-6-15v-6l-2 1q-4 3-8 3-20 8-35 26l-2 5 2 4q6 8 5 18h59v101l11 1q32 8 50 35 16 29 9 62l-7 19 3 2q6 3 8 9l1 8 1 3v6l-4 2-7-1h-4q-6-2-10-9l-1-6-2-10v-11q0-6-5-11l-1-4q-1-6-5-10l-9-4v2l-4 5h-9l-1 1q-4 1-7-2l-6-9-1 24v36q1 20-8 36l-3 7q-9 23-24 42l-1 2-20 23-2 3c-25 26-60 41-96 42a159 159 0 0 1-121-50q3 0 5 2l2 2q9 9 19 13l6 4a105 105 0 0 0 31 11l4-10 1-3 1-2h-43l-2-3h3l154 1q11 1 21-6l6-6 7-8c23-22 41-54 52-84l-1-1v-5l-3-1v-3h-5l3-7h-5l1-2q6-8 7-18l-3 1q-7 1-14-2v-2l17-2v-9l1-6 1-11v-2l1-23h-2l-2-1-1-3h-5l4-8h-5l3-6 4-9v-4l1-2h-2q-9 3-16-1l1-3 17-2v-10l1-6 1-12 1-22h-2l-2-1-1-3h-5l3-7h-5v-2h2l4-9 1-3 2-8-3 1q-7 1-15-2v-2l18-2v-10l1-9h2v-15h-37l4 12h2v2h-5l2 2 1 4-10 3-1-3-5-1 3-6h-5v-2l2-2 6-9h-36v-1h7q-3-18-18-30-8-8-9-19-2-14 7-24 10-11 25-11 11 3 18 11l3 10v5q9-8 12-19 2-6 6-6h4q6 0 10-5l7-10 5-4h9l1-3q3-7 9-9 8-4 11-12l4-4h7l1-4h2l2-1h3q3-2 7-3m-135 70q-4 8-2 16 3 7 8 13 5 0 9-3t3-8q0-6-6-11zm89 189v47q6 0 7-5l1-4 4-2 7 1q3-4 2-8-6-17-20-29zm40 22v3l-5 21 2 1 14 15h1q1-21-10-39z"/>
  <path fill="#cead69" d="m250 0 4 2 1 5h2l6 4-1 4-3 1-4 2-1 6 2 1q5 1 6 7l1 4-3 1v2l3 1q11 2 21 9l4 3v-3l3 1 2 5q3 5 8 9l1-2 2-2h2l3 17q-1 4 3 6v16q0 5 3 8 0 8-5 15l-3 1 1 3 1 3v4l1 6-3 2v7l-2 2q0 4 3 8 1 5-2 9l-2 2h-2l1 2 1 4v3q2 7-3 14c-13 11-39 14-56 13l-18-2-4-1c-8-1-20-4-26-11q-3-8 0-16l1-2v-3l-2-1-3-2 1-9h2q0-4-4-6l1-10h-4v-2q3-6 2-14l-2-3-2-8-3-4 1-11 2-14q0-4 2-7l2-1 1-3h-2q0-8 5-13l3 2v3h2l3-6 7-10 1 4 2-1q10-7 21-11l7-3-3-2q-1-5 2-8l5-5v-7h-5v-2l-3-1v-5q2-3 6-3V4q2-4 7-4"/>
  <path fill="#084c9c" d="M416 414q9 5 11 14 0 6-3 11 6 2 12 0l9-7q5-4 10-3l3-1 4 3q4 6 3 11v7l1 5q6 24 4 49v10q1 27-7 50-4 12-3 23v10c-2 17-2 17 1 33q4 12-2 24-3 12 1 24 1 5-2 8c-9 7-22 5-33 4l-11-4q-4-9-3-19v-10l-7 8q-15 14-34 23l-15 10q-10 7-21 9-7 2-14 6-16 9-35 7l-9 2q-15 8-31 3l-5-2-12-1q-22-2-42-10l-13-5-25-9-17-11-10-7q-11-7-20-18l1 3-2 14-2 10-4 5-7-1q-12-2-24 1h-8q-4-2-4-6v-10q1-12-2-22-5-20 1-37 3-12-1-23v-7q0-7-4-13-12-25-7-54l-1-14c-4-18-1-36 1-54h2v-2l-1-11q0-4 3-6 6-2 11-1l7 5q12 4 26 1l5 1q-1 4-3 7-4 9-3 19v12l6 1 1 4 6 18q3 10 0 22v27l1 13c0 14 0 14 8 26l5 5 2 3 5 7q3 5 8 9l5 6q5 6 12 10l3 4v2h2l8 4 3 2 7 5q12 7 26 9 11 2 18 9 5 2 11 3l21 3q12 4 25-1l13-1q16-1 28-10l13-4q12-2 21-11l13-8q8-3 13-11l7-6h2l1-2 6-8 19-30 3-5q6-9 4-19l-1-4-2-20-1-4-1-7q-3-12 4-22 6-10 5-21v-12h4v-6l-2-4q-4-4-2-10v-23zm26 25q-5 4-12 5h-5l2 58v21q1 12-4 24-2 5-2 10-2 10-8 16l-4 10q-5 15-15 25l-5 6-5 7-5 5q-3 5-9 8l-6 6-12 8-8 5q-5 5-12 5-17 4-33 13-8 4-18 3-9 1-19 5t-21-1l-25-5q-12-2-22-7l-4-2-37-18-3-2q-12-6-20-15l-5-4-7-7-2-3q-6-7-9-15l-7-10-3-1v-3h-2v-3l-6-14c-10-14-10-32-11-49l-1-10-1-15v-2l2-17 1-17q0-9 2-16H69q-6 1-13-3l-2-2q-2-2-6-2t-6 2v9l-2 14-1 19v4q0 10 2 20l1 30c-1 22 5 38 15 57l12 24q8 16 21 27l15 15 14 14 3 3a141 141 0 0 0 57 30l16 6q10 4 22 4 14 1 28 5 19 4 36-4 8-2 17-1 12-1 22-7 7-4 16-5 14-5 25-14v-2h2l12-5 2-1q21-13 36-32l5-6 2-2 13-16 2-4q15-25 23-52l1-3q5-13 7-27l1-6v-42q1-9-2-17v-8q-1-9-3-16v-7l-3-8c-6-4-11 1-17 5"/>
  <path fill="#d4b268" d="m37 95 3 1h4l6 2 1 4h3q6 1 10 5l1 6h2q10 3 16 12 3 4 2 8h3q7 0 13 6l4 5q4 5 11 5h2l5 1 1 4 3 1v3q2 9 9 14l3 2v3h2l2-4v4l2 8h2l2 5h2l7 2 3 2 2 2 44 25 2 2 2 1v1h-18v5c1 16 1 16-2 21q-5 4-11 4l-8-5 1-5h-3l-1 2q-7-7-5-18l7-1-14-16c-11-13-25-29-42-33l-8 1-5-1v3c1 11 1 11-1 14l-6 5-3 4-3 3-7-3v2q2 7-2 12l-8 8q-9-4-15-11l-1-10-4 4q-8-3-13-10v-11l2-3-1 2-2 2-2 2-5 3-6-4-2-2q-5-3-5-10v-5l-4 5q-8-3-14-10-2-6 1-12l9-11 5 2v-4q3-12 14-21h13l-1-7-2-2q-3-1-4-6v-3l-3-1v-7q2-2 5-2m15 75 1 2Zm-3 4-1 1-6-2 2 10 2-2 2-2 4 1v-8z"/>
  <path fill="#d5b268" d="M280 436v47l24 4h4l3 1 13 3-15 12-2 2-10 7-2 2-5 3 7 13 14 25a182 182 0 0 1-38-6l-5-1-17 38-7-9v-2l-6-10-7-15-2 1-39 10-4 1 6-12 1-2 13-27-2-1-12-8-2-1-12-9-2-2-3-1-2-2-1-1v-3l29-6 2-1 9-1-1-47 9 7 14 11 9 9 4 1q6-2 9-7l4-4 1-1 8-7 9-9z"/>
  <path fill="#d8d7d7" d="m462 91 4 2v6l-2 1-3 4v2l-2 2-1 5v5q3 2 7 1h7c5 4 12 12 13 18l1 3v4l2-2q4 0 6 3 7 7 7 17-3 8-11 12l-5 2-3-6h-2v2c1 9 1 9-2 13q-4 5-11 6c-10-10-10-10-10-17l1-4-3 2-5-2v7h4q7 6 10 14l-2 7c-9 9-9 9-15 9l-4-6h-2l1 3v9l-13 11h-2c-10-10-10-10-10-17l1-3v-3l-1 2-2 1q-4 0-6-3l-1-1-2-3-2-2-1-2q-7-6-6-15v-6l-2 1q-4 3-8 3c-14 4-29 18-38 30l-10-8-1-2-4-4q4-5 10-7l1 2 2-2v3h3l1-3q3-4 7-3h3v-2c-1-7-1-7 2-11l3-2q6-7 8-15 2-6 6-6h4q6 0 10-5l7-10 5-4h9l1-3q3-7 9-9 8-4 11-12l4-4h7l1-4h2l2-1h3q3-2 7-3"/>
  <path fill="#0e4797" d="M416 414q9 5 11 14 0 6-3 11 6 2 12 0l9-7q5-4 10-3l3-1 4 3q4 6 3 11v7l1 5q6 24 4 49v10a165 165 0 0 1-10 62v-9l-1-3 2-6 4-19 1-6v-42q1-9-2-17v-8q-1-9-3-16l-1-10q0-2-3-5-5-1-9 2l-6 4q-7 5-17 4l1 3v8l3 21v14l-1 12v21q1 12-4 24-2 5-2 10-2 10-8 16l-4 10q-5 15-15 25l-5 6q-3 5-8 9l-2 3q-4 6-10 9l-6 6-12 8-8 5q-5 5-12 5-17 4-33 13-8 4-18 3-9 1-19 5t-21-1l-25-5q-12-2-22-7l-4-2-37-18-3-2q-12-6-20-15l-5-4-8-8-2-3q-6-6-9-15-3-7-9-11v-3h-2l-3-8q0-5-4-9c-10-14-10-32-11-49l-1-10-1-15v-2l2-17 1-17q-1-8 3-16l-3 1H68q-7 1-12-3l-2-2q-2-2-6-2l-5 1v8l-2 18q-3 14-3 28l-3-1 2-25v-4l1-9h2v-2l-1-11q0-4 3-6 6-2 11-1l7 5q12 4 26 1l5 1q-1 4-3 7-4 9-3 19v12l6 1 1 4 6 18q3 10 0 22v27l1 13c0 14 0 14 8 26l5 5 2 3 5 7q3 5 8 9l5 6q5 6 12 10l3 4v2h2l8 4 3 2 7 5q12 7 26 9 11 2 18 9 5 2 11 3l21 3q12 4 25-1l13-1q16-1 28-10l13-4q12-2 21-11l13-8q8-3 13-11l7-6h2l1-2 6-8 19-30 3-5q6-9 4-19l-1-4-2-20-1-4-1-7q-3-12 4-22 6-10 5-21v-12h4v-6l-2-4q-4-4-2-10v-23z"/>
  <path fill="#cbab6b" d="m250 0 4 2 1 5h2l6 4-1 4-3 1-4 2-1 6 2 1q5 1 6 7l1 4-3 1v2l3 1q11 2 21 9l4 3v-3l3 1 2 5q3 5 8 9l1-2 2-2h2l3 17q-1 4 3 6v16q0 5 3 8 0 8-5 15l-3 1 1 3 1 3v4l1 6-3 1-1 2-3-1 3-5-2-5 1-1-2-1-3-2-3-1-4-5v-4h-2l-2 1h-8v-2h5l3-1 5-1 3 7c5 0 5 0 9-3l1-10-4-1 1 3 1 7-7 1-2-4-1-2v-5h3V93l-4-1-16-5 3 2v6h6l3 8q-4 3-9 3l-3-1-1 4-6-2v-7l-2 1h-7l-2-5 4-4 7 2v-2q2-5 5-7-20-3-41-2h-2l-11 1-2 4v-2l-8 2-2 1-12 5v8l1 4 3-2 6 1v3l2 6h8l-1 2-10-1-1-2-3-1v2l-3-1-1 8-5-1v2l5 3q3 0 5-4l2-3 10 1-6 4-2 1-14 8h-2l-1-3-3-10-1-3-3-5 1-11 2-14q0-4 2-7l2-1 1-3h-2q0-8 5-13l3 2v3h2l3-6 7-10 1 4 2-1q10-7 21-11l7-3-3-2q-1-5 2-8l5-5v-7h-5v-2l-3-1v-5q2-3 6-3V4q2-4 7-4"/>
  <path fill="#d7d7d7" d="M91 230h38v1H92v252l-1-4h-6l-1-16v-3q0-7 4-14 3-4 2-9h-3l-5-3q-1-4 2-9l2-2v-4l-6 4h-7l-4-5v-2c-8 1-8 1-15 4q-3 6-4 13l-2 1h-2l-3 1-3 3v15h-2v10l-1 3-1 15q-5 3-12 2-6-4-9-12l2-8 5-1v-3q0-3 2-5l2-2 2-2-1-2a72 72 0 0 1-10-52 80 80 0 0 1 20-35q20-20 48-25h6zM75 366q-7 7-7 16l2 11h7l5 4 3 5q0 3 5 6v-48q-9 0-15 6m-24 14q-10 12-10 28l2-1 16-10-1-2q-4-7-6-15z"/>
  <path fill="#d1af66" d="M415 330c20-1 39 11 53 24q21 24 20 55-1 20-9 38l3 2q6 3 8 9l1 8 1 3v6l-4 2-7-1h-4q-6-2-10-9l-1-6-2-10v-11q0-6-5-11l-1-4q-1-6-5-10l-9-4v2l-4 5h-9l-1 1-7-1q-8-9-7-21l2-1 3-1 1-6q2-3 6-4l7 1q2-9-3-16-6-10-14-18-4-3-3-8v-14m41 42v3l-5 21 2 1 14 15h1q1-21-10-39z"/>
  <path fill="#121111" d="M182 157q6 3 8 10c2 12-4 24-7 36l2 1 29 16 5-19 23 3c2 6-2 13-4 18l-6 9-3 5q-13 19-35 26-11 1-21-1v3l2-1h8l2 1h6l-1 3-16 2q0 9 4 17l3 2v2h-5l1 3 2 1v2h-6l-1 3-5-1v-2h-5l3-7h-5v-2l2-2q7-8 7-17l-3 1q-7 1-15-2v-2l18-2v-4h-2q-9-4-16-13-2-8-2-16h-14l2 5 1 3 4 4v2h-5l2 2 1 4-10 3-1-3-5-1 2-5-4-1v-2h2l5-11H91v106h-1V229h58l1-9 2-6 1-2 1-2q4 0 7 2l2 4 2 1q3 4 3 8l-2 4q-2 9 4 17l4-1-1 5 2 1 6 3q8-1 12-6l1-12v-11l17-1-5-3-17-10-3-1-24-15q-7-4-14-6v-4h-2l-4-3v-5h-2l-3-5q2-9 9-16c12-9 24-6 37 1m-20 8-3 1q-6 4-7 10l1 10 10 7q5-1 7-7l2-2q4-9 1-19l-1-2q-6 0-10 2"/>
  <path fill="#b9b8b8" d="m462 91 4 2v6l-2 1-3 4v2l-2 2-1 5v5q3 2 7 1h7c5 4 12 12 13 18l1 3v4l2-2q4 0 6 3 7 7 7 17-3 8-11 12l-5 2-3-6h-2v2q-2 5-5 7l-3 2-4 2q3-5 8-9v-2l-1-5 2 1 5-1 3 6 4-3 3-2 4-4v-5l-8 7-4-3 1-2 3 2 8-7-4-7-2-4q-5 2-8 6-5-1-7-6v-2l4-3 1-2 2-1-1-2-10-13q-6 4-11 9l-11 10-26 21-5 5-2-1 31-28 14-11 3-3-4-1-7-2h-9l-4 5-3 4-2 2-4 4h-9v4q-1 6-6 10l-9 4-5 3-1 6h-2l1 7v3q2 6 6 9l4 6 2 3 2 2 2-1 7-2 5 6-3 4q-4 4-3 9 2 7 9 13l-4 2c-10-11-10-11-10-17l1-3v-3l-1 2-2 1q-4 0-6-3l-1-1-2-3-2-2-1-2q-7-6-6-15v-6l-2 1q-4 3-8 3c-14 4-29 18-38 30l-10-8-1-2-4-4q4-5 10-7l1 2 2-2v3h3l1-3q3-4 7-3h3v-2c-1-7-1-7 2-11l3-2q6-7 8-15 2-6 6-6h4q6 0 10-5l7-10 5-4h9l1-3q3-7 9-9 8-4 11-12l4-4h7l1-4h2l2-1h3q3-2 7-3"/>
  <path fill="#c19d5d" d="m207 140 1 2-1 2-2 6 1 2-4 2 1 3 4 1v4l4-1 1-5 3-1 4-1 1-2-4-1h-2l-5 1 4-7v3h3q3-1 5 3l2 2-5 5h-3v2l-2 5 4 1h7l4-6 2 1-2 6 6 2 2-1h6l1-2h9q6 0 10 2l5-1 1 2 3-1 9 1 3 1 3 1 1 3 4-1-1 2h-2l-1 3-4-1-1-2 1-3-4 2-3-2-2-1-3 4-2-1-4 1-6-2-10 1h-6l-6 1-5-1-1 1q-2 3-6 3l-2 1-2 1c-7 1-7 1-13 4l2-1 16-4 2-1c23-5 49-2 70 8v-2h2l-1-3h2l-1-1-2-4-4-4-2-1 1-4h2l2-1h3l2-1 1-2h-2l2-6h-3l-3 8h-5q-4-3-3-7v-3l2 1 1 6 2 1-1-6 3-2-1-5h3v-9l8 4 1-2v5l-2 2q0 4 3 8 1 5-2 9l-2 2h-2l1 2 1 4v3q2 7-3 14c-13 11-39 14-56 13l-18-2-4-1c-8-1-20-4-26-11q-3-8 0-16l1-2v-3l-2-1-3-2 1-9h2q0-4-4-6v-6l3-1 1 2z"/>
  <path fill="#dbb97e" d="M246 299q5 1 7 5l2 5 1-2 2-2 2-2q3-4 8-3 4-1 8 3l-1 5h-5l-2-3q-3 2-3 6v34q1 8 4 15 5 2 9 0l-4-1-1-5 4-3q-5 0-8 2l3-15 4-1-1-9 4-1v4l-1-2h-2l9 16-1-4v-7l4-1h2l1 4-3 1v-3h-2l4 10 4-1-5 11q-2 7-9 10-11 3-20-3-7-4-9-12l-1-2-1-2v19l-2 4-4-1q-4-8-1-17l1-3-1-4-1 2q-3 13-14 18l-3 1-2 1q-7 1-12-2-10-9-13-21l5 2v-3l3-8h-3l-1 4-1-4 2-2 5 2-1 10 7-14h-2l1-4 4 1q1 9-5 14l-2 4h-2l-1 7h2l1-2 5-6h2l1-5h-2v2h-2l2-4h4v7q0 3 3 5v4h-2l-2-3-6 1 5 2v5l-4 2 7 1q4-4 5-9v-12l2-5-1-4v-2l-1-1v-13c1-5 1-5-2-10l-2-1-1 4-4-1-1-5q2-2 6-2 8 0 13 6l2 3 1-2 1-2 2-2q2-4 6-4"/>
  <path fill="#c6a770" d="m220 49 2 1-8 6 1 5 6 1-4 5-7 1 2 2 12-3-1-2 2-6h6l-1 2h-4v3l5-2 1 3 4 1 2 1h2l-1 2h-3q-4 0-6 2l-3-1v-2l-2 2-5 2v2l-10 4h6l4-1 8-2h5l9-1v2h14v-2h-12v-1q32-2 60 15l3 1 5 4v4q0 6 3 10 0 8-5 15l-3 1 1 3 1 3v4l1 6-3 1-1 2-3-1 3-5-2-5 1-1-2-1-3-2-3-1-4-5v-4h-2l-2 1h-8v-2h5l3-1 5-1 3 7c5 0 5 0 9-3l1-10-4-1 1 3 1 7-7 1-2-4-1-2v-5h3V93l-4-1-16-5 3 2v6h6l3 8q-4 3-9 3l-3-1-1 4-6-2v-7l-2 1h-7l-2-5 4-4 7 2v-2q2-5 5-7-20-3-41-2h-2l-11 1-2 4v-2l-8 2-2 1-12 5v8l1 4 3-2 6 1v3l2 6h8l-1 2-10-1-1-2-3-1v2l-3-1-1 8-5-1v2l5 3q3 0 5-4l2-3 10 1-6 4-2 1-14 8h-2l-1-3-3-10-1-3-3-5 1-11 2-14q0-4 2-7l2-1 1-3h-2q0-8 5-13l3 2v3h2l3-6 7-10 1 4z"/>
  <path fill="#9a734c" d="M86 133q10 0 16 7l5 5q4 4 11 4l5 1 1 4 3 1v3q2 9 9 14l3 2v3h2l2-4v4l2 8h2l2 5h2l7 2 3 2 2 2 44 25 2 2 2 1v1h-18v5c1 16 1 16-2 21q-5 4-11 4l-8-5 1-5h-3l-1 2q-7-7-5-18l7-1-14-16c-11-13-25-29-42-33l-8 1-5-1v3c1 11 1 11-1 14l-6 5-5 6-4 1q3-7 9-12 3-4 3-9h-2l-1 2-7 7 7-9 1-2q-1-5-6-7l-16-14q5 0 8 4l14 12v-2l1-3v-3l4-5v2l2 1-1 3h2l1-2 8-11 3-4 3-3-14 14q0-4 4-7l3-5h-2v-3l-2-1q-5-2-9-6-5-7-14-10z"/>
  <path fill="#1f0e0e" d="M352 149q6 5 9 11v22l-6 1q-3 2-5 5l-5 1-1-5c0-7 0-7-3-14l-14-8q-3 10 1 20 10 14 22 26 7 8 7 21h51v1h-37l4 12h2v2h-5l2 2 1 4-10 3-1-3-5-1 3-6h-5v-2l2-2 6-9h-36v-1h7q-3-18-18-30-8-8-9-19-2-14 7-24c10-10 23-15 36-7"/>
  <path fill="#9d774e" d="M415 330c20-1 39 11 53 24q21 24 20 55-1 20-9 38l3 2q6 3 8 9l1 8 1 3v6l-4 2-7-1h-4q-6-2-10-9l-1-7-1-4v-3h2l1-2 4-4h3l6-17 1-3c5-16 4-36-4-51q-8-13-19-23l1 1 7 9q17 26 11 56-1 9-6 17-1-5 1-11 9-26-2-51l-14-19-2-2q-13-17-36-20h-3v5l3 1q12 1 22 7l2 1 7 6-11-5q-11-6-23-7v4h3q13 4 20 17 4 11 1 21-1 6-6 8l-2-2h-5l-2 2 1 5 4 1-1 7h5l2-2 2-2q5-1 8 3l-8-1-1 2-4 3h-3l3 6h6l1-2q2-2 6-2 5 0 9 3h3q3 6 2 11v5h-1v-2q-2-7-8-12l-7-3v2l-4 5h-9l-1 1-7-1q-8-9-7-21l2-1 3-1 1-6q2-3 6-4l7 1q2-9-3-16-6-10-14-18-4-3-3-8v-14"/>
  <path fill="#9c764d" d="m37 95 3 1h4l6 2 1 4h3q6 1 10 5l1 6h2q10 3 16 11l3 8q1 5 7 6l10 10 7 4v3l5-2-1 1-9 12 2-2 2-3 3-3 5-5h2q-2 6-6 8-6 5-9 12h-2v-2l-1-2v-3q-4-7-12-9-7-3-12-10l-1-5h-3q-8 0-13-6l-6-7-3-3h-5l-3 1-9 1h-7l-4 4-2 3-2 6 7 6-5 8q-5-1-9-5l-5 2 3-6 5 2v-4q3-12 14-21h13l-1-7-2-2q-3-1-4-6v-3l-3-1v-7q2-2 5-2"/>
  <path fill="#bab9b9" d="M91 230h38v1H92v252l-1-4h-6l-1-16v-3q0-7 4-14 3-4 2-9h-3l-5-3q-1-4 2-9l2-2v-4l-6 4h-7l-4-5v-2c-8 1-8 1-15 4q-3 6-4 13l-8 1q-2-11 4-20 8-8 18-9h2l2 6 5-1 2-6 3-3v-6l-3 1q-5 1-8-2-7-8-8-18 2-11 9-18 10-7 22-6v-8q-14 1-27 8l-2 1-2-1c21-11 21-11 31-11v-3l-3 1-5 1h-2l-12 3q4-5 9-5l2-1 12-1zM75 366q-7 7-7 16l2 11h7l5 4 3 5q0 3 5 6v-48q-9 0-15 6"/>
  <path fill="#d1ae66" d="m249 130-1 3-3 1 1 6h-3l-3 1-2 5h-2v2q4 3 9 2l3-2h4v2c2 5 2 5 6 9l2 1-2-2-4-4v-6l6 1 2-6-2-3-6 1 1-2 2-5-5-2v-2q20 1 39 8l-1 4-4 2 1 5h-2l-1-2h-2l-2 1h-6l1 3h2l1 2 1 3 5 1-2 5h-2l1 3q-5 1-9-2l-2-2 2 4h-2l-41 1v-5l-2 3-5 4h-2v-1l-7-1q0-4 2-8l5-3 2-3q-2-3-6-4h-3v-4l-4-2v-3q9-4 19-6l2-1z"/>
  <path fill="#d4b268" d="m296 188-1 5q-30 11-63 9h-3q-13 0-25-6v-8q45-21 92 0"/>
  <path fill="#d8d7d6" d="m276 85-4 5-1 4-7-1-3 4 2 4 8-1v7h2l4 1 1-3h3l6-2h3l-1-3-2-5-7 1v-3q1-4-2-6l-1-1q11 2 21 7l1 6v3l-1 5-3 1 3 9 7-1-1-2-1-7 5 1c0 7 0 7-2 11q-4 4-9 3-4-3-3-8l-3 2h-10l8 1h4l1 3q1 5 4 5l2 1-3 1 2 2-4-1-1-3q-7-4-15-3h-5l-5-5-3-1v-2l7-4-2 1c-7 3-7 3-11 1l-6-5v-5l1-4q-2-2-5-2t-5 2v4l-1 6q-4 4-10 4l-5-3-1-7h9l4-7q-5-3-12-1v-2q-1-3-6-5l-1-3q27-6 54 1"/>
  <path fill="#f9f6f6" d="M215 590h70q0 7-5 13l-2 3h4l-1 4q-31 7-63 1l-1-4 4-1-2-2q-4-6-4-14"/>
  <path fill="#d4b167" d="m121 156-1 4 3 1 3 5q3 6 8 9l3 3-1 7h3l7 3 1-3 2 5h2l7 2 3 2 2 2 44 25 2 2 2 1v1h-18v4c-16 2-16 2-21-1l-10-12q-2-4-6-7l-2-3-10-10-2-4-2-1-7-4q-11-9-24-15l-2 3h-2q2-7 6-11l3-3 2-2 2-2z"/>
  <path fill="#d8b272" d="M246 299q5 1 7 5l2 5 1-2 2-2 2-2q3-4 8-3 4-1 8 3l-1 5h-5l-2-3q-5 6-4 13v9h-2q-2-10-1-20-5 5-5 12l-2 9h-5l-1-3v-21l-4-2-1 9v16l-6 1q-2-3-1-7 0-6-4-12l-3-2 2 3q2 9 1 18v6q1 14-5 26 6-1 8-6l2-4h2q-1 8-9 13l-6 2-2 1q-7 1-12-2-10-9-13-21l5 2v-3l3-8h-3l-1 4-1-4 2-2 5 2-1 10 7-14h-2l1-4 4 1q1 9-5 14l-2 4h-2l-1 7h2l1-2 5-6h2l1-5h-2v2h-2l2-4h4v7q0 3 3 5v4h-2l-2-3-6 1 5 2v5l-4 2 7 1q4-4 5-9v-12l2-5-1-4v-2l-1-1v-13c1-5 1-5-2-10l-2-1-1 4-4-1-1-5q2-2 6-2 8 0 13 6l2 3 1-2 1-2 2-2q2-4 6-4"/>
  <path fill="#090404" d="M298 227h5v80h5v3h-5v88h3v3h-3v80h3v2h-8z"/>
  <path fill="#d0ae66" d="m250 0 4 2 1 5h2l6 4-1 4-3 1-4 2-1 6 2 1q5 1 6 7l1 4-3 1v2l3 1q11 2 21 9l4 3v-3l3 1 2 5q3 5 8 9l1-2 2-2h2l3 17q0 4 3 6l-1 5-4-1-3-6-9-4-7-4-1 1h-8l-1-2 4-1 3-1h5l2 2q5 4 12 3l1 5h2v-6l-3-1v-7l-3 1-6-2-4-8h-4l-2 2-1-4q-4-7-12-9l-2-1-12-2h-8l3 5 2 1v3h2q4 2 6 5l-4 4h-7l-1-6-4-1-1 3q-2-4-2-9l3-2 1-3-6 1h-4l-6 2h-6l15-5-3-3q-1-5 2-8l5-5v-7h-5v-2l-3-1v-5q2-3 6-3V4q2-4 7-4"/>
  <path fill="#cead68" d="m226 88 3 2v4l3-2q5 0 9 3l-4 8-9-1c1 5 1 5 5 9h5l5-4 2-1 3 1v2l6-1 3 4q-2 3-5 2h-8v-2l-3 1h-9l-6-2-5 6 3-2q3-3 6-1l3 1-1 2h-2v2q-2 3-5 5l-1-2-4-1q-9 2-15 6l-1 6h-5l-3 1-5 1v-3l3-1 20-11-8-2-1 2-3 5h-6l-4-4 1-3 2 2 4 1v-9l4 2v-2l6 3h1l-1-2-1-8q-6 0-10 2l-1-8v-5c8-5 20-11 29-6"/>
  <path fill="#b6b5b6" d="m67 342-3 4-3 2q-16 8-27 23l-2 3q-14 23-9 50l3 9 1 3q5 10 13 17h-2v10l-1 3-1 15q-5 3-12 2-6-4-9-12l2-8 5-1v-3q0-3 2-5l2-2 2-2-1-2a72 72 0 0 1-10-52 80 80 0 0 1 20-35c6-7 20-19 30-19"/>
  <path fill="#164999" d="m410 652 3 1-7 8-2 3q-15 14-34 23l-15 10q-10 7-21 9-7 2-14 6-16 9-35 7l-9 2q-15 8-31 3l-5-2-12-1q-25-2-48-13 3-2 7-2l14 5 3 1 7 1h5q15 1 29 5 19 4 36-4 8-2 17-1 12-1 22-7 7-4 16-5 14-4 24-13l1-2 4-2q19-7 34-22l7-6 2-2z"/>
  <path fill="#1e0f0f" d="M182 157q6 3 8 10c2 11-2 26-8 36l-3 1-2-1 5-14 3-15 1-4-3-5q-4-3-8-3v2q4 14-4 26l-5 6-1-4 3-4q6-9 5-20l-1-4q-10 1-17 7l-2 9v6l-5-2v-2h-2l-1 3-4-3v-5h-2l-3-5q2-9 9-16c12-9 24-6 37 1"/>
  <path fill="#d7d7d7" d="M320 201q7 4 11 10l2 3 2 9-6 7h-25v77h-1v-80h-5v-2h-10l-1-6 23-15 3-2 3-1z"/>
  <path fill="#c62822" d="M238 271v2h14l5-1v2h3v2l2-1 6 2v5l4-1v2h2v6h-4l-1 2h-2v3l-6 1-1-1-1 3h-7v-5q-3 2-4 5h-5l-1-4h-2l-1 2h-4v-2l-3-1-1 3-6-1-2-6-5-1-1-4 3-3h2l1-4h3v-2h2v2h4v-3z"/>
  <path fill="#eef4f9" d="m364 653 2-1q5 0 9 3 5 5 4 9 0 9-6 14l-12 8-2 1c-5 3-5 3-8 3l1-2q0-7-4-13l-1-2q-3-6-7-7h-2q0-4 3-6l7-4 2-1q6-2 14-2"/>
  <path fill="#9a744e" d="M175 162q5 0 9 3 5 7 2 15-4 12-9 23h3q5 0 9 3l4 2 21 12q-4 15-18 26l-3 1v-22l17-1-5-3-17-10-3-1-24-15q-7-4-14-6l-1-7h2v2l3 1 9 5 3 1 3 4c8-11 9-19 9-33"/>
  <path fill="#966f4a" d="M415 330h1v8l3 1q12 1 22 7l2 1 7 6-11-5q-11-6-23-7v4h3q13 4 20 17 4 11 1 21-1 6-6 8l-2-2h-5l-2 2 1 5 4 1-1 7h5l2-2 2-2q5-1 8 3l-8-1-1 2-4 3h-3l3 6h6l1-2q2-2 6-2 5 0 9 3h3q3 6 2 11v5h-1v-2q-2-7-8-12l-7-3v2l-4 5h-9l-1 1-7-1q-8-9-7-21l2-1 3-1 1-6q2-3 6-4l7 1q2-9-3-16-6-10-14-18-4-3-3-8v-14"/>
  <path fill="#be191a" d="m318 158 6 1v2q-4 16 6 28l10 11c14 16 14 16 13 27h-15l-1-5q-3-13-14-22-12-12-12-29 1-7 7-13"/>
  <path fill="#eaf2f9" d="m93 587 4 1 4 7 1 2q5 7 4 16-4 8-13 12-5 2-11-1-9-8-14-19l1-3 2 1q4 0 7-3l2-1 3-2 2-2c5-3 5-3 8-8"/>
  <path fill="#9a734b" d="m298 141 8 4 1-2v5l-2 2q0 4 3 8 1 5-2 9l-2 2h-2l1 2 1 4v3q2 7-3 14c-13 11-39 14-56 13s-17-1-21-4h19q23 1 44-6l2-1 6-2 1-4-21-6q-34-9-66 5l-5 1v7q-4 0-6-4v-8q4-3 9-3l2-1 1-3h3l2 4-7 4 2-1 16-4 2-1c23-5 49-2 70 8v-2h2l-1-3h2l-1-1-2-4-4-4-2-1 1-4h2l2-1h3l2-1 1-2h-2l2-6h-3l-3 8h-5q-4-3-3-7v-3l2 1 1 6 2 1-1-6 3-2-1-5h3z"/>
  <path fill="#ef9e9d" d="M91 230h38v1H92v252l-1-4h-6l-1-16v-3q0-7 4-14 3-7 2-14v-72l-5 1-3 1q-6 3-10 8l-4 15h-1q-1-11 5-21 8-7 18-7v-13q-14 1-27 8l-2 1-2-1c21-11 21-11 31-11v-3l-3 1-5 1h-2l-12 3q4-5 9-5l2-1 12-1z"/>
  <path fill="#bf191a" d="m225 204 14 1q-2 24-20 40c-10 8-21 16-35 15l9-7q26-18 32-49"/>
  <path fill="#c62721" d="m244 302 5 2v23l5 1v-3c1-12 1-12 5-17l3-2-1 2q-3 12-1 23l1 6-1 1q-1 10 3 18l2 6q-7-5-10-14l-1-11-5 1-3 5-2-2q-3-3-7-4v3q-1 9-6 18l-4 2 1-2v-2l1-3 1-2 1-2v-24q1-10-3-20 6 4 8 10l1 6v6h6v-3l-1-11v-4q0-3 2-7"/>
  <path fill="#ebf3f9" d="M201 675q15 0 25 9 4 5 2 10l-7 6h-6l5 6q5 2 9-2l2-1 4 1q0 3-3 5-6 5-13 3l-8-7c-4-4-4-4-9-5l-2 5h-4l3-15q3-7 2-15"/>
  <path fill="#d8d8d8" d="M456 97v4l-2 1-1 4 2 1v7h-2v5l-2-1-8 2-7 9q-2 5-7 6t-9-3q-4-3-2-8 3-4 7-6 5-3 6-7l2-2 3-6 3-3 8-1q4-2 9-2"/>
  <path fill="#d6d6d6" d="M376 154q4 0 6 3l2 3 2 3 2 6h-3v3l-5 4q-19 11-33 28l-9-7-2-3-2-2q4-5 10-7l1 2 2-2v3h3l1-3q3-4 7-3h3l-1-3q0-4 3-6l5-4 8-10 3 1-1-1q-2-2-2-5"/>
  <path fill="#c9ab70" d="M277 86q11 2 21 7l1 6v3l-1 5-3 1 3 9 7-1-1-2-1-7 5 1c0 7 0 7-2 11q-4 4-9 3-4-3-3-8l-3 2h-10l8 1h4l1 3q1 5 4 5l2 1-3 1 2 2-4-1-1-3q-7-4-15-3h-5l-5-5-3-1v-2l7-4-2 1-2 1-3 1q-3 1-6-2l3-1q6-1 8-5v2h2l4 1 1-3h3l6-2h3l-1-3-2-5-7 1v-3q1-4-2-6z"/>
  <path fill="#ddbb83" d="M246 299q5 1 7 5l2 5 1-2 2-2 2-2q3-4 8-3 4-1 8 3l-1 5h-5l-2-3q-5 6-4 13v9h-2q-2-10-1-20-5 5-5 12l-2 9h-5l-1-3v-21l-4-2-1 9v16l-6 1q-2-3-1-7 0-6-4-12l-3-2 1 4h-2l1 2v8l-1 6h-2v-12c0-5 0-5-3-10l-2-1-1 4-4-1-1-5q2-2 6-2 8 0 13 6l2 3 1-2 1-2 2-2q2-4 6-4"/>
  <path fill="#cdaa64" d="m228 164 1 2h3l31-2h7q3 0 5 2l11-2 4 1 2 4 4 4 2 1v4l3 1-1 5h-2v2l-13-4q-37-12-72 2h-6q6-4 14-6h2l8-2 1-3 3 1q4 1 7-2l1 1h9l5-1 4 1h11l2-3 6 2h3l1 5h3l2-3h-2l-1-2-2 1v-2l-6-1-4-1h-7v-2l-7 2-2-2-8-1h-7l-1 3-3-1-5 1-1 2q-4-1-6-5z"/>
  <path fill="#b9b9b9" d="m56 360 2 1-1 2q-3 7-3 13v2q1 10 7 18l1 3-3 1-5 3q-13 5-17 18l-1 3q-8-16-2-33 7-18 22-31m-5 20q-10 12-10 28l2-1 16-10-1-2q-4-7-6-15z"/>
  <path fill="#151515" d="m169 333 3 1 1 7v11l16 1 1 3-18 2c1 12 1 12 8 22l-4 1h-2l2 2 1 4h-5l-2 4-4-1v-3h-5l2-6-4-2 1-2q6-9 7-19l-3 1q-7 1-14-2v-3h4l3-1 4-1h6v-2q0-8 2-17"/>
  <path fill="#d8d7d5" d="m249 130-1 3-3 1 1 6h-3l-3 1-2 5h-2v2q4 3 9 2l2-1q0 5-3 9-5 3-10 2v-7l-1-3q-5 0-9 2l-2-1-9-3v-4l-4-2v-3q9-4 19-6l2-1z"/>
  <path fill="#131313" d="m131 287 3 1 1 18 16 1 1 3-6 1-3 1h-9q0 13 8 22l-5 1 1 3 2 1v2h-6l-1 3-5-1v-2l-5-1 3-7h-5l1-2q6-9 8-20l-2 1q-8 3-16-1v-3h4l3-1 3-1h7v-2q0-8 2-17"/>
  <path fill="#0f0f0f" d="M326 333h2l1 19h3l11 1h3v3q-8 3-17 2 0 10 5 19l3 2v2h-6l1 3 2 1v2h-2q-3 1-5 4l-4-1v-3h-5l3-8h-5l1-2q6-9 7-19l-3 1q-8 1-15-2l1-3h4l3-1 3-1h7v-10zM366 287h3c2 16 2 16 0 20l2-1 16 1v3l-17 2q-1 13 7 22l-5 1 2 2 1 4-11 3-1-3-5-1 3-7h-5l1-2q7-8 8-20l-2 1q-5 3-11 0l-5-2 1-2q9-2 17-2v-10z"/>
  <path fill="#fbf9f9" d="M164 230h29c1 16 1 16-2 21q-5 4-11 4l-8-5 1-5h-3l-1 2-2-3-2-2z"/>
  <path fill="#121212" d="M327 245h2l1 18 18 1-1 3-6 1-3 1h-7q0 9 4 17l2 4h-5l2 2 1 4h-5l-1 3h-5v-3h-5l2-6-4-1 4-6q4-7 4-15l-2 1-15-1v-3l17-2v-2c0-11 0-11 2-16"/>
  <path fill="#a5825b" d="m250 0 4 2 1 5h2l6 4-1 4-3 1-4 2-1 6 2 1q5 1 6 7l1 4-3 1v2l2 1v2h-8l-4-1v-6h2v5h3l1-7-12-1 3-1v-4l-5 4 1 2-5 1c4-7 4-7 7-9v-7h-5v-2l-3-1v-5q2-3 6-3V4q2-4 7-4"/>
  <path fill="#d8d7d5" d="M252 130q20 1 39 8l-1 4-4 2 1 5h-2l-1-2h-2l-2 1h-5l-1-1-7 1v8l-1 3q-5 1-10-2-2-4-2-9l6 1 2-6-2-3-6 1 1-2 2-5-5-2z"/>
  <path fill="#b81b1c" d="M156 211q5 2 7 6l2 2 2 6-2 4q-2 9 4 17l4-1-1 5h2v3l5 2v2q-4 3-9 1-13-6-18-19v-11q0-8 4-17"/>
  <path fill="#d2b067" d="M458 352c13 11 25 25 27 42q2 22-6 42l-1 3c-3 8-3 8-6 9l-5 5h-2q0-5 3-10l5-11 1-3q9-25 0-51l-1-3-11-17z"/>
  <path fill="#171717" d="M169 427h3l1 17 16 1v3h-3l-5 2h-8q0 10 5 18l2 1v2h-5l1 3 2 1v2h-6l-1 3-5-1v-2h-4l2-7h-4l4-7q4-6 4-14l-2 1q-4 3-10 0l-5-2v-2h4l3-1 4-1h6v-9z"/>
  <path fill="#e9f2f8" d="m165 659 10 3 3 2 3 1 3 1 8 4v4q-8 0-15-5l-5-1q-3 5-3 10h2c14 3 14 3 18 8v4l-9-2-11-4-5-1-1 8 17 7v3q-16 0-27-10l-2-2v-3h6l5-10 1-2q4-7 2-15"/>
  <path fill="#161616" d="M326 427h2l2 17 15 1 1 3-17 2q1 9 5 17v2h2v2h-5l2 2 1 4h-5l-1 3-5-1v-2l-5-1 3-6h-5v-2l2-1q6-8 7-18l-2 1q-7 3-15-1v-3l16-2v-2q0-8 2-15"/>
  <path fill="#141414" d="M130 379h3l1 18 15 1v3h-3l-5 2h-7q0 10 4 18l2 4h-5l2 2 1 4h-5l-2 4-3-1v-3h-5l2-6-4-1v-2l2-2q5-7 6-17h-2q-7 2-14-1v-3l5-1 2-1h9v-10zM366 379h2v2l1 4v12h4l11 1 1 3-16 2q0 12 6 20v2h-5l2 2 1 4h-2l-4 4-4-1v-3h-4l2-7h-4l4-6 2-9 1-4v-2h-2q-7 2-14-1l1-3 4-1 2-1h9v-2c0-11 0-11 2-16"/>
  <path fill="#631d1f" d="m154 209 3 1-1 2q-4 10-4 21c0 6 0 6-2 9l-1-12h-14l2 5 1 3 4 4v2h-5l2 2 1 4-10 3-1-3-5-1 2-5-4-1v-2h2l5-11H91v106h-1V229h58l1-9 2-5 1-3z"/>
  <path fill="#ebf3f9" d="M308 674q4 0 6 3l1 2 2 3 1 3 2 2q5 7 5 15-3 0-5-3l-1-2-1-2-2-2-2-4-1-2-3-3v2c-3 16-3 16-7 20h-3l-3-4-1-2-2-2-3-5-1-2-3-3v3l-1 4v3l-3 10h-3l3-20 1-7 4-1 13 17 1-3 1-7c3-11 3-11 5-13"/>
  <path fill="#d4b267" d="m61 111 1 2q3 5 8 6 7 3 11 10v6l-5 5q-5 1-10-1-5-5-9-11-3-4-8-6 2-10 12-11"/>
  <path fill="#ecf4f9" d="m49 562 28 1h5l3 3 1 2-16 18-2 2-4 4h-3l2-8-2-7-4-11-7-1z"/>
  <path fill="#d2b069" d="m269 68 2 1q7 4 16 4h3l1 1 5 3q6 1 10 5l1 3 1 2 5 1-1 5-3-2-4-2-2-1-10-4-1-1q-4-4-9-5h-3q-12-4-24-4v2h-14v-2l-2 1-9 1-5 1-10 2h-7c4-6 11-6 17-8l28-2h5q6-1 10-1"/>
  <path fill="#c9a662" d="m253 95 3 3-1 4v5q3 4 8 5 5 0 9-3l2 1-8 4v2h2l4 3 4 2 6-1-5 3-2 2-8 3v-2l5-4-3-3q-4 0-7 3l4 5-6-3-2-1-5 3-2-1 3-1 2-2v-2l-5-3-8 4 6 4h-5l-6 2 2-6-4-1-2-1-4 1v-3l2-1-6-2-4 4-2-1 6-7 3 2h9l7-1v2h8l2-2-1-3-6 1v-2l-3 1-1-5v-3l1-4q4-2 8-1"/>
  <path fill="#a88457" d="M197 95v4l1 3 1 4 3-2 6 1v3l2 6h8l-1 2-10-1-1-2-3-1v2l-3-1-1 8-5-1v2l5 3q3 0 5-4l2-3 10 1-6 4-2 1-14 8h-2l-1-3-3-10-1-3-3-5q0-6 2-13l3 1z"/>
  <path fill="#966f49" d="m207 140 1 2-1 2-2 6 1 2-4 2 1 3 4 1v4l4-1 1-5 3-1 4-1 1-2-4-1h-2l-5 1 4-7v3h3q3-1 5 3l2 2-5 5h-3v2l-3 6v3l-3 6c-8 4-8 4-11 4v-9l-4-2-1-4 1-6h2q0-4-4-6v-6l3-1 1 2z"/>
  <path fill="#d9d9d9" d="m415 130 5 4q1 5-2 10t-9 7q-7 3-11 9h-2l-4-5-2-4-1-2 2-1 12-14q5-6 12-4"/>
  <path fill="#966f48" d="M298 93c12 5 12 5 16 10q3 7-1 13l-3 6-3 1 1 3 1 3v4l1 6-3 1-1 2-3-1 3-5-2-5 1-1-2-1-3-2-3-1-4-5v-4h-2l-2 1h-8v-2h5l3-1 5-1 3 7c5 0 5 0 9-3l1-10-4-1 1 3 1 7-7 1-2-4-1-2v-5h3z"/>
  <path fill="#076cb5" d="M369 658q5 4 5 9t-3 9q-7 5-15 6l-9-19c15-9 15-9 22-5"/>
  <path fill="#d7d6d5" d="M250 43c19-1 19-1 26 4l2 1 5 4v6l-6 2 5 5h2v4l-10-1q-2-4 0-9l-7-1-1 7c-7 0-7 0-10-2l-2-2 3-1q3 0 5-4l-3-2q-4-1-6-6l-3-2z"/>
  <path fill="#d7d5d4" d="m248 43-1 4-3 1v4h-2q-4 2-5 6l7 3-4 5-7-1-2-7-7 1v8c-8 5-8 5-12 4l-3-4h3q5 0 8-4l-2-1q-3 0-4-4l-1-2 2-1 2-2 2-1 4-4 5-2 3-1h2z"/>
  <path fill="#9b754e" d="M86 133q10 0 16 7l5 5q4 4 11 4l5 1 1 4 3 1v3q2 9 9 14l3 2v3h2l2-4v4l3 8v3l-10-3v-3l-1-5-4-3-7-11-4-3h-2l3-4-13 13-3 4-1-2 12-14 3-4-14 14q0-4 4-7l3-5h-2v-3l-2-1q-5-2-9-6-5-7-14-10z"/>
  <path fill="#d6a968" d="m276 327 4 1-1 3-1-2h-2l9 16-1-4v-7l4-1h2l1 4-3 1v-3h-2l4 10 4-1-5 11q-2 7-8 9h-4l1-5-5-1 1-5 3-2q-5 0-8 2l3-15 4-1v-2l-1-2v-5z"/>
  <path fill="#f7f0f0" d="m163 587 2 1 6 1h6l33 1c-1 8-1 8-3 11l-2 2-4 3q-20-5-38-17z"/>
  <path fill="#d4b167" d="m89 136 12 9 8 7q-1 6-6 10l-4-2-3-2-4-2-2-1q-7-3-11-9-1-5 1-9 4-2 9-1"/>
  <path fill="#bdbcbc" d="M399 170h1v3q1 5 4 7l10 13 2-1 7-2 5 6-3 4q-4 4-3 9 2 7 9 13l-4 2c-10-11-10-11-10-17l1-3v-3l-1 2-2 1q-4 0-6-3l-1-1-2-3-2-2-1-2q-6-6-6-14v-3z"/>
  <path fill="#bbbaba" d="m404 128 2 1q-6 12-16 21l1 2 2 2 2 2 1 4 2 1-1 3h-3l-1 5h-4l-3-4-2-3-3-5-5-3 2 2 1 6-3-2-2 2q-4 7-12 13l-1-3 2-2q9-7 11-18 2-6 6-6h4q6 0 10-5l9-12z"/>
  <path fill="#bf1a1a" d="M175 162q5 0 9 3 5 7 2 15-3 12-9 22l-11-5q2-5 6-11 4-7 3-16v-8"/>
  <path fill="#066cb5" d="M93 594h3c5 11 5 11 4 17q-3 7-6 7-6 1-13-1l-6-7q0-4 3-5l2-2 2-1 2-2 4-3 2-1z"/>
  <path fill="#c9a664" d="M54 157q5 2 8 6l-1 4-3 2-3 7 3 7 2 1-4 3-5-4-10 7-2-1 9-11 3 1v-6l-3 3-6-4-7-2-2-2 1-4 6-5 6 5q6-2 8-7m-2 13 1 2Z"/>
  <path fill="#280b09" d="m222 201 7 1h3l3 1 7 1c2 6-2 12-4 18l-6 9-3 5-3 4-3-1 1-2q11-14 15-32l-14-1-1 5q-5 27-29 44c-11 7-11 7-15 7l-2-1 10-6q22-12 30-37l2-11z"/>
  <path fill="#a07c57" d="M444 356q15 9 21 26l1 9-6-12-3-6-1 3v5l-1 2-3 13 2 1 13 13-1-18q5 9 3 20v9h-2l-1-2q-8-17-26-23 0-8 5-15h1l-4 15 8 1-1-2 1-6q3-7 2-15v-8q0-3-3-5v10l-3 9v-3z"/>
  <path fill="#eaf2f8" d="M408 598q5 2 8 6l-2 5h-3l-6 2q-2 4-1 8 3 7 10 9h8q4-3 3-7v-11h4q3 3 2 8c0 8 0 8-2 11q-7 6-15 4-8 0-13-7-4-6-4-13 2-5 7-7l5-1-2-3z"/>
  <path fill="#d8d6d4" d="M220 86q-1 9-7 14l-3 5q4 2 8 3l3-1q0 4-3 7l-8 1q-2-4-2-10-6 0-10 2l-1-8v-5q11-7 23-8"/>
  <path fill="#9b754d" d="m416 397 2 2h3l2-1 2 2-2 6 5 1 1-2 3-1 5-3 4-1 5 3-8-1-1 2-4 3h-3l3 6h6l1-2q2-2 6-2 5 0 9 3h3q3 6 2 11v5h-1v-2q-2-7-8-12l-7-3v2l-4 5h-9l-1 1-7-1q-8-9-7-21"/>
  <path fill="#c5a160" d="M239 74h3v2h9l8 1v2h-18v-3h-2l1 3q-2 2-5 1-5 1-9 4h-4l-2 4v-2l-2 1-8 2-3 1-3 1-3 1-4-1-2 3-4-2 1-3h2v-3l4 1v2q3 0 5-4l-3-1 3-1 6-2q5-4 12-4 4 1 7-2h10z"/>
  <path fill="#d1af67" d="m5 153 2 1-3 4q2 6 7 8l4-1 2-3q5 1 7 5l2 2 1 1-2 2q-3 4-3 10 4 7 11 11l-2 2c-11-8-11-8-13-13v-8l-4 5q-8-3-14-10-1-6 1-12z"/>
  <path fill="#b58f57" d="m474 450 5 1q2 5 1 9l-2 3 4-1v-10l5 5v7l2 4 1 6-7-2h-3q-6 0-10-5l-2-6-1-3 1-6q2-2 6-2"/>
  <path fill="#eef5fa" d="m268 681 4 1q-2 9-5 14l-3 5-1 2-5 11q-5-2-8-8l-2-2c-9-15-9-15-8-22l4 1 6 12 1 2 3 5 1 4h2v-3l4-12 1-2c3-6 3-6 6-8"/>
  <path fill="#edf4f9" d="M129 635h2l-2 25 2-1 8-3 2-1 3-1 3-1 7-1-1 4-6 3-3 2h-2l-5 3-15 5-1-1c0-10 1-26 8-33"/>
  <path fill="#d0af6c" d="m269 146 6 3v2h2l1 2 1 3 5 1-2 5h-2l1 3q-5 1-9-2l-2-2 2 4h-2l-41 1v-3h3q11 2 18-6l1-1 2 2q5 5 11 4v-2l-3-1 5-1v-10z"/>
  <path fill="#9e7852" d="M263 41q15 0 25 11v-3l3 1 2 5q3 5 8 9l1-2 2-2h2l3 17q0 4 3 6l-1 5-4-1-3-6-9-4-7-4-1 1h-8l-1-2 4-1 3-1h5l2 2q5 4 12 3l1 5h2v-6l-3-1v-7l-3 1-6-2-4-8h-4l-2 2-1-4q-6-8-17-11l-4-1z"/>
  <path fill="#c9a764" d="M74 195v3l1 3 4-1q4 6 4 13-4 9-11 14-9-4-15-11v-11l4 3 9 7 4-4 2-2 1-2q-1-5-6-7z"/>
  <path fill="#bb191a" d="M344 149q9 3 14 11l-1 4-4 2-2 1h-6l-3-4q-4-5-11-7l-5-3q8-6 18-4"/>
  <path fill="#f9f5f5" d="M290 590h35l-11 8-2 1q-8 4-17 6c-5-5-4-7-5-15"/>
  <path fill="#e7f0f8" d="M388 624h3l4 10 2 3c6 14 6 14 4 19l-19-4-3-1-10-5 1-4 16 4 3 1 6 2-1-2-4-13-1-2v-2z"/>
  <path fill="#92744a" d="M416 414q9 5 11 14 1 5-2 9l-5 3 1 15-5-1q-2-5-1-10v-23z"/>
  <path fill="#b59058" d="m223 121 3 2 4-3-2 4 4 3-7-1v3h5q-4 2-10 3l2-2 1-5-1-2h-4l1 2-9 4v3l5 2-9 6-9 5-2 1-2-1v-3h-4q1-5 5-9h10v-6l7-4 2-1q4-3 10-1"/>
  <path fill="#d6d4d1" d="M277 86q11 2 21 7v11h-5l-1 4-3 6-4 1q-5-1-7-6v-4h3l6-2h3l-1-3-2-5-7 1v-3q1-4-2-6z"/>
  <path fill="#c2a167" d="m221 86 8 4v4l3-2q5 0 9 3l-4 8-9-1-1 3v-3h-3l-1 4h-3l1-6-5-1-2 3-2 3h-2l5-9h2v-3z"/>
  <path fill="#97714c" d="m247 8-1 4h-2v-2l-4 1 1 5h3v-2h3v11h3v5h5l-2-2q-4-4-3-8v-4h3l1 8 2 1q5 1 6 7l1 4-3 1v2l2 1v2h-8l-4-1v-6h2v5h3l1-7-12-1 3-1v-4l-5 4 1 2-5 1c4-7 4-7 7-9v-7h-5v-2l-3-1v-5q4-5 10-2"/>
  <path fill="#ab8652" d="M243 166h9q6 0 10 2l5-1 1 2 3-1 9 1 3 1 3 1 1 3 4-1-1 2h-2l-1 3-4-1-1-2 1-3-4 2-3-2-2-1-3 4-2-1-4 1-6-2-10 1h-6l-8 1-1-2 5-2v-2l3-1z"/>
  <path fill="#b6b5b6" d="m18 463 6 2 1 3 3 1 4 4-1-2-2-4 7-1v15c-7 3-7 3-12 2q-6-4-9-12l1-6z"/>
  <path fill="#c5a260" d="m295 125 1 1 3 1q5 1 7 4h-2l3 6-8 2q-4-4-3-7l-2 1-6 1v-2h-2l-3-1h-3l-4-4 1-5q10-4 18 3"/>
  <path fill="#eaf2f8" d="M430 552h5l-4 10-1 4-1 2 3 1 10 5 2 1 5 2-1 4-17-6h-6l-2 4-2 3h-3q-1-7 3-12l1-3z"/>
  <path fill="#d6d6d6" d="M85 354h5v3l-2 1q-11 1-17 9-3 5-4 12v6h2l1 8q-8-7-10-17 2-11 10-17 7-5 15-5"/>
  <path fill="#bbb" d="M456 97v4l-2 1-1 4 2 1v7h-2v5l-3-1v-2l-3-1-4-6-5-4-1 2q-2 6-8 9 2-6 6-10l1-3 3-3 8-1q4-2 9-2"/>
  <path fill="#cbab6a" d="m228 164 1 2h3l31-2h7q3 0 5 2l11-2 4 1 2 4 4 4 2 1-1 2-6-1v-2l-4 1-1-2-2 1v-2l-6-1-4-1h-7v-2l-7 2-2-2-8-1h-7l-1 3-3-1-5 1-1 2q-4-1-6-5z"/>
  <path fill="#c21f1f" d="M193 225h19q-6 13-18 22h-1z"/>
  <path fill="#c62e24" d="M261 306v6q-4 10-1 19l1 6-1 1q-1 10 3 18l2 6q-7-5-10-14v-6l-1-5-5-3 1-6h4v-3q-1-11 7-19"/>
  <path fill="#bb191a" d="m170 155 3 1-7 3q-9 4-15 10h-5l-2-1h-2l-1-4c6-10 19-14 29-9"/>
  <path fill="#d0744d" d="M226 274h2v2h2l-1 5-3 1-2 6 5-1v2h8l1 1 7 1v-2h8q3 0 5 2v5l-6 1v-5q-3 2-4 5h-5l-1-4h-2l-1 2h-4v-2l-3-1-1 3-6-1-2-6-5-1-1-4 3-3h2l1-4h3z"/>
  <path fill="#d7d7d7" d="M52 367q3 6-1 11l-3 3-2 6v2l-3-1-4 23q0 3-3 5c-3-6-2-19 0-25q5-14 16-24"/>
  <path fill="#c2a36e" d="M270 131q12 1 23 7v3h2l1 7-3 1v3l-7-1 1 2v6l-4 4h-2l3-6h-5l-2-6h-2l-3-3-2-2h14l1 3h2l-2-5 2-1q4-2 4-5h-2l-11-4h-3l-5-2z"/>
  <path fill="#c62922" d="M228 305q6 4 8 10v9q1 3 4 5l2 1-1 5h-3l-3 12-4 11-4 2 1-2v-2l1-3 1-2 1-2v-24q1-10-3-20"/>
  <path fill="#c0a2ac" d="M90 443h2v40l-1-4h-6l-1-16v-3q-1-9 6-17"/>
  <path fill="#141414" d="m94 424 2 1 1 11-1 6 17 1v2l-16 3q0 10 5 19l1 1h-5l4 6-8 3z"/>
  <path fill="#9d774d" d="M309 104h2l3 7q0 6-4 11l-3 1 1 3 1 3v4l1 6-3 1-1 2-3-1 3-5-2-5 1-1-2-1-3-2-3-1-4-5v-4h-2l-2 1h-8v-2h5l3-1 5-1 3 7c5 0 5 0 9-2l1-10z"/>
  <path fill="#131313" d="m94 339 2 1v12h3l11 1h3v3q-8 3-17 2c1 11 1 11 6 20l2 1v2h-6l2 2 1 4h-2l-5 3z"/>
  <path fill="#cba964" d="m40 191 9 7 2-1 6-3 6 5-1 4-5 3-5 4q-8-3-13-10z"/>
  <path fill="#c19f66" d="M255 134h2l-3 7 3-2 4 1 3 5-4 4-6-1 2 8 8 4h-7l-5-7v-5l-3 2q-4 2-9 1l-4-3v-2l2-1 2-5 8 1 1 5h2v-3z"/>
  <path fill="#111" d="m94 250 2 1v13l17 1v2c-14 4-14 4-18 2l2 8v2l4 10 2 1v2h-5l4 6h-6l-1 3h-1z"/>
  <path fill="#190f0e" d="M175 155q6 1 11 5 6 8 4 18c-4 18-4 18-8 25l-3 1-2-1 5-14 3-15 1-4-3-5-3-2-2-2-4-3z"/>
  <path fill="#c4a15f" d="m249 116 8 4q0 3-4 5l9 1v1h-10l-2 1-15 1h-10v-3h4l-2-2 5-6 8 3-1 5 2-2 7 1-6-3z"/>
  <path fill="#b28d56" d="M210 176h3l2 4-7 4 2-1 16-4 2-1q12-2 25-2h10v1l-10 1q-22 0-44 9l-5 1v7q-4 0-6-4v-8q4-3 9-3l2-1z"/>
  <path fill="#076db5" d="M207 681a30 30 0 0 1 17 8l1 3-2 3h-10l-9-1 1-5v-3z"/>
  <path fill="#9e774b" d="M450 353c11 5 18 18 23 29l3 17q1 19-7 35l-2 7 4-5-4 10-1 3-1 2h-1v-9l1-8 2-1 3-7 1-4q7-25-5-49l-13-16z"/>
  <path fill="#bbbaba" d="M451 176q8 4 12 12 2 5-1 10c-9 9-9 9-15 9l-4-6h-2l1 3q-1 4-5 7l-5 3-2-1 8-7-2-4-2-5h2l1 2 6-2 5 6 7-4 4-2-1-5-2-1 1-3-3-6-2-3-2-2z"/>
  <path fill="#d8d8d8" d="m65 407 1 6-2 1c-8 2-8 2-14 8l-2 7v4l-5 1q-1-11 6-21 7-7 16-6"/>
  <path fill="#d9af74" d="m212 326 4 1q1 9-5 14l-2 4h-2v12l4 5q-6-1-9-6l-2-5-1-3-2-5 5 2v-3l3-8h-3l-1 4-1-4 2-2 5 2-1 10 7-14h-2z"/>
  <path fill="#b7b3b3" d="M321 201q-1 4-6 7l-3 2-4 2-3 2-14 9 7 1v1h-10l-1-6 20-13 3-2 3-1 3-2z"/>
  <path fill="#ccaa64" d="M96 187h2q1 5-2 9l-2 2-3 3-2 2-2 2-2 2-6-5v-2l-4 2-2-4 3-6 10 5 4-4 3-2z"/>
  <path fill="#231b1b" d="M360 160h1v22l-8 2-3 4-5 1-1-4 3-1q5-2 6-8l-2-1 2-7h2v-4l4-2-1 3 2 1z"/>
  <path fill="#d0ad65" d="m240 172 3 1h9l5-1 4 1h9l1 3 2-1 4 1v2h-11q-28-4-53 6h-6q6-4 14-6h2l8-2 1-3 3 1h3z"/>
  <path fill="#eaf2f8" d="M413 588q9 1 16 6l3 1 9 7-1 3-10-3-3-2-3-1-3-1-9-6z"/>
  <path fill="#cbac6f" d="m283 54 2 4 3-3 4 2 1 5 4 2 1 2 3 2-6 2-6-2h-5v-3h-2q-3 0-5-4l-1-2 7-1z"/>
  <path fill="#1b0706" d="m219 201 3 1a76 76 0 0 1-42 56l1 2h-4v-3h2v-2l-5-2 1-2 2 2 5 1 10-6 12-11 2-2q10-15 13-34"/>
  <path fill="#c8a563" d="M208 75h5l-3 3 1 2-2 1c-5 3-5 3-8 8h-3v-2l-4-1v3l-2 1 1 3 2 1 1-4 5 1q-6 5-13 9v-2l-2-1 1-14h1v5l3-2 4-2 2-1 8-4 2-1z"/>
  <path fill="#151413" d="m137 166 1 3h3l7 3h6l-1 14-5-2v-2h-2l-1 3-4-3v-5h-2q-3-3-3-8z"/>
  <path fill="#171313" d="M178 159v3h-3v2q4 14-4 26l-5 6-1-4 3-4q6-9 5-20l-1-4q-7 0-14 4v-2l-6 4q1-4 4-7 10-4 22-4"/>
  <path fill="#b9b9b9" d="m443 156 2 1-2 2-2 4 5-1q5 7 3 15l-3 3-2 4q-4-1-7-6l5-7h2l-1-2-2-2-2-2-1-5z"/>
  <path fill="#d1d1d1" d="M444 190q4 2 5 5l2-1 8-3v6l-9 7-8-6-5 2-1-4 3-3 1-2z"/>
  <path fill="#c8a562" d="m211 167 8 1-4 2 4-1h8l-5 2 6 1-1 4h-6l-3-3h-6v2l3 1-1 3-1-3-3 1v3h-4l-2 2-3 1h-2l-1 2h-2v-7l2-2v3l2-1 3-2 3-2 5-1z"/>
  <path fill="#ceac66" d="m277 79 15 4-1 2c8 6 8 6 18 7l1 5h2l-1 3-9-5q-13-7-27-11v-2h2z"/>
  <path fill="#9f7950" d="M17 162q5 1 7 5l2 2 1 1-2 2q-3 4-3 10 4 7 11 11l-2 2c-11-8-11-8-13-13v-8l-4 5q-7-2-13-9v-2l8 5 4 2 4-4 6 1 1-3q-3-4-7-5z"/>
  <path fill="#cdaa64" d="M298 99h1l-1 8-3 1 3 9 7-1-1-2-1-7 5 1c0 7 0 7-2 11q-4 4-9 3-4-3-3-8l-3 2-3-1 2-3 1-4q0-3 2-5h4z"/>
  <path fill="#9f7850" d="m416 397 2 2h3l2-1 2 2-2 6h2l5 3v6l-7-1 1 3h-2q-7-9-6-20"/>
  <path fill="#cca964" d="m194 159 6 2 1 7 4 1 6-2v6l-5 3-3 2-5 1v-9l-4-2-1-4z"/>
  <path fill="#0b4496" d="M453 585q2 5-1 8l-2 3-1 4-2 3-10 19-1 2-11 14-2 2-2 1 1-5 4-3 6-9 16-32 1-2 1-2z"/>
  <path fill="#a31a19" d="m222 201 2 1q-3 20-15 36l-1 2q-11 13-26 19l-4-1 2-1q26-13 37-39l3-13z"/>
  <path fill="#b18c58" d="M445 381h1l-4 15h2q14 3 22 15l1 2-1-21q5 9 3 20v9h-2l-1-2q-8-17-26-23 0-8 5-15"/>
  <path fill="#ccc" d="m333 217 2 2c0 5-2 6-6 11h-25v77h-1v-80l1 2h14c5 0 5 0 10-3q3-4 5-9"/>
  <path fill="#a37d4e" d="m109 152 1 3 5-2-1 1-9 12 2-2 2-3 3-3 5-5h2q-2 6-6 8-6 5-9 12h-2v-2l-1-2v-3q-3-6-10-8l-5-3h6l3 2 8 4 2-3 2-1z"/>
  <path fill="#a98351" d="m249 115 6 2 6 2 5-3 4 1 2 2 4 2 6-1-5 3-2 2-8 3v-2l5-4-3-3q-4 0-7 3l4 5-6-3-2-1-5 3-2-1 3-1 2-2v-2l-5-3-8 4 6 4h-5l-6 2 2-6-4-1-2-1-4 1v-3l10 2c4 0 5-4 9-4"/>
  <path fill="#d3b167" d="m473 450 6 1q2 5 1 9l-3 3q-5 1-8-2-2-1-2-6 1-5 6-5"/>
  <path fill="#b97b55" d="M128 182q10 7 19 16l7 7q10 9 17 20 5 5 13 4h9v1h-29v-1l7-1-14-16q-13-16-31-28z"/>
  <path fill="#d5a965" d="m259 314 2 1 1 6v6h2v-8h1v19l-2 1-1 7-1 3v3q-2-4-2-9v-11l-1-5v-8z"/>
  <path fill="#d7d7d7" d="m33 452 5 3q1 5-2 8t-8 2q-3-2-3-6 0-3 2-5t6-2"/>
  <path fill="#cfcfcf" d="m445 117-2 2-8 11q-1 4-6 5h-5l-1-6 8-3 1-2q2-5 8-8z"/>
  <path fill="#daac78" d="M247 344h1q2 12 1 23l-2 2-4-1q-3-6-2-14l1-2 2-1z"/>
  <path fill="#d7d7d7" d="M402 181q7 6 12 14l8-4 4 7-3-1q-3 0-7 2l-2 2-1 1-6-8-2-2-1-2-2-2z"/>
  <path fill="#dfc08c" d="M237 336q5 1 9 6h3l-5 12h-1v-6l-1-4-1 3-6 7-3 5-2 1 3-7 2-10z"/>
  <path fill="#1c4f9c" d="M469 531q0 12-3 23l-1 3-5 18v-9l-1-3 2-6 4-19 1-6z"/>
  <path fill="#160707" d="m223 240 2 1q-13 17-33 21c-15 1-15 1-19-2l4-2v2h3l7-1q17-1 29-13l2-2z"/>
  <path fill="#d5a164" d="m276 327 4 1-1 3-1-2h-2l1 2 4 11 2 3 1 7-3-3q-2-2-7-2l-3 1v-7l2-4h3v-2l-1-2v-5z"/>
  <path fill="#936b44" d="m61 163 1 3-3 3-4 7q1 6 5 8l-4 3-5-4-10 7-2-1 9-11 3 1v-2l1-2v-3l3-5 1-3 4 1z"/>
  <path fill="#9f7a51" d="m247 8-1 4h-2v-2l-4 1 1 5h3v-2h3v11h3v5l6-1-1 3h-11l3-1v-4l-5 4 1 2-5 1c4-7 4-7 7-9v-7h-5v-2l-3-1v-5q4-5 10-2"/>
  <path fill="#ccaa67" d="M287 155q4 5 5 9h5l2-7 4-1 1 2-2 1-1 4h2l-3 4h-7l-1 2-1-2-5-2-5 1h-7l-4-3v-2l-2-1q3 0 5 3l5 1h2l1-2h2l2-1z"/>
  <path fill="#ac8753" d="M274 76q17 2 30 12l3 1 5 4v4h-2l-1-4h-3q-7-1-13-6l-3-2 1-2-3-1-4-1h-2c-6-2-6-2-8-5"/>
  <path fill="#e47e82" d="m93 483 3 8 19 45q-7-4-9-12l-1-2-8-21-4-13z"/>
  <path fill="#b3965f" d="M415 464h5l2 6 1 4 1 7-9 1z"/>
  <path fill="#221212" d="M365 463h3l1 17 16 2v1h-30l1-2h8v-2z"/>
  <path fill="#8c1918" d="M277 200h4l3 8 1 2 3 15q-3-1-4-6l-1-2-1-2 1 7-6-12v-3l-2-5z"/>
  <path fill="#9a734a" d="M187 116q4 1 7 5l1 2 4 1q3 1 5-3l2-3 10 1-6 4-2 1-14 8h-2l-1-3z"/>
  <path fill="#a68156" d="m16 139 4 2 6 7-5 7q-5-1-9-5l-5 2 3-6 5 2z"/>
  <path fill="#d0ae67" d="m243 5 9 1v2h-2v4h4V9h3v2h3v2h-3v2h-8v9q-2-5-2-10h-3v2h-3l-1-5 4-1v2l2-1 1-3h-4z"/>
  <path fill="#9c764d" d="M74 195v3l1 3 4-1q4 6 4 13-4 9-11 14l-7-5 3 1q3 1 5-2 5-4 5-9v-3l-2 1 1-5-6-5z"/>
  <path fill="#211313" d="M130 463h3v18h16l1 2h-31l4-2h6v-10z"/>
  <path fill="#a27c4d" d="m293 124 3 2 3 1q5 1 7 4h-2l3 6-8 2q-4-4-3-7l-7 2v-2l4-2z"/>
  <path fill="#966f49" d="m197 95 2 16-7-1-3-5-2-2-1-5 3 1z"/>
  <path fill="#cecfd0" d="M88 445h2v31h-4v-14q0-8 2-17"/>
  <path fill="#c73427" d="m265 338 3 8q0 5 2 6l2-2h5l1 2-4 2v4l4 1 1-2-1 4-8 1q-4-3-5-8v-16"/>
  <path fill="#c39f5f" d="m219 121 4 2 1 5-2 3h-2v2l-7 1-3-1h-2l2-5 7-3z"/>
  <path fill="#ae8a59" d="M56 106v2h3v2l-4 3q-5 3-8 9h-2v-2l-4-1-1-5h2q6-2 8-7z"/>
  <path fill="#1c1c1c" d="m94 424 2 1 1 11-1 6 17 1v2l-16 3v-2l-3 1z"/>
  <path fill="#b7b6b6" d="m83 418 7 1v18c-6-1-6-1-8-3q-1-4 2-9l2-2v-4z"/>
  <path fill="#e5bf9d" d="m236 289 5 1h2l2 1v-2h8q3 0 5 2v5l-6 1v-5q-3 2-4 5h-5l-1-4h-2l-1 2h-4l-1-4z"/>
  <path fill="#986f49" d="M146 182h2v2l3 1 12 6 3 5 8 4 2 1 5 3-4 1-5-3-3-1-3-2q-9-6-19-10z"/>
  <path fill="#d4b267" d="M239 76h2v3h14q9 0 16 2v1h-3l-41 1q3-3 8-4h4zM416 417l4 1v7l3 2q2 5-2 9l-5 3z"/>
  <path fill="#bbb" d="m473 120 5 5 2 3 2 3 2 2q3 6 1 12l-5 3-2-5 4-5-7-10-1-2-3-4-5 2v-2l-3-1c6-3 6-3 10-1"/>
  <path fill="#d1b478" d="m199 112 4 2v-2l4 1 2 4-1 1-4 5-5 3q-5-1-7-5l1-3 2 2 4 1z"/>
  <path fill="#d4d1ce" d="m250 156 4 4q6 3 11 2l5-1 2 4h-2l-41 1v-3h3c7 1 7 1 14-2z"/>
  <path fill="#caa969" d="M253 49h2v3h2q4 2 6 5l-4 4h-7l-1-6-4-1-1 3-2-5 6-1h2z"/>
  <path fill="#b8b8b8" d="M90 357v3h-2q-10 3-16 10l-4 15h-1q-1-11 5-21 8-7 18-7"/>
  <path fill="#c62a22" d="M224 346h1c1 10 1 10-2 14q-3 3-7 2l-3-1v-3h3v-5l-5-1 3-3 5 1 1 3h2v-3h2z"/>
  <path fill="#d7d6d4" d="m222 153 3 1-1 10q-5 3-11 2 0-4 2-8l5-3z"/>
  <path fill="#a47e4f" d="m253 95 3 3-1 6-10 2V96z"/>
  <path fill="#a48059" d="M485 395q3 2 3 6l-1 21-1 2q0 5-3 9l-2-4 2-6 2-18v-10"/>
  <path fill="#bbaa9a" d="m262 40 1 3h-13l4 6-2 3h-8v-4l3-2 1-3-6 1h-4l-6 2h-6q11-6 24-4h12z"/>
  <path fill="#ae8853" d="M239 74h3v2h9l8 1v2h-18v-3h-2q-7 2-16 3v2l2 1h-4l1-4-3-1h3l6-2h10z"/>
  <path fill="#0e70b7" d="m63 567 15 1-10 11-2-5-2-3z"/>
  <path fill="#ceb582" d="m294 140 4 1v9l-2 1 1 2v2l-3 3v5l-3-1-2-7-1 2-2-6 7 1v-3l2-1z"/>
  <path fill="#bb965a" d="M244 73c20 0 20 0 29 2l-2 2 4 4h-2l-14-2v-2l-3-1v-2h-12z"/>
  <path fill="#cfad67" d="m287 95 1 4-3 5-9-3v3h-4v-4h2l4-4z"/>
  <path fill="#966f4a" d="M208 72h2q-4 8-13 12l-3 2-6 2 1-9 6-2 2 1v3l7-4z"/>
  <path fill="#ceac67" d="m289 165 3 2v2l4 4 2 1-1 2-6-1v-2l-4 1-1-2-2 1v-2l-5-2 4-1-3-2q4-3 9-1"/>
  <path fill="#d4a462" d="M237 350h2q-1 8-9 13-8 3-16 3l-1-2 2-1 2-1 2-1 5-3v2l7-1 3-5z"/>
  <path fill="#d5d5d5" d="M379 150q4 0 6 2l4 6 2 2q4 4 3 7l-1 2q-5-2-8-8l-2-2z"/>
  <path fill="#e1c191" d="M285 337q4 3 5 8l4-1c-7 16-7 16-10 19h-5l1-1 2-2 1-2q4-5 4-11l-1-4v-3z"/>
  <path fill="#292020" d="M174 161q4 10 1 20-3 9-9 15l-1-4 3-4q6-9 5-20l-3-6z"/>
  <path fill="#ceae6c" d="M232 92q5 0 9 3l-3 6h-5l-3-1h-2v-4h3z"/>
  <path fill="#cf6847" d="M236 271h2v2l9-1v2l2 1-1 3-5 1v-3l-2 1-1 3-6-1-1-5h2z"/>
  <path fill="#e23139" d="M111 532q6 4 9 11l12 17 3 5h-2l-5-6-1-2-11-14-1-2z"/>
  <path fill="#a58051" d="m253 104 4 5q5 3 11 2l3-1h3q-7 6-16 5l-5-2 2-2-1-3-6 1v-2l-3 1 1-3z"/>
  <path fill="#d1ae66" d="m44 101 3 1v7l-4 1-3 1-5-2v-4l5-3z"/>
  <path fill="#22549d" d="M49 433h4q-4 4-9 4-2 3-1 5v2l-1 3v9l-1-2h-2v6h-1v-7h2v-2l-1-8v-3q0-4 3-6z"/>
  <path fill="#cfae6b" d="M248 148h4v2l5 9 3 1 2 1 2 1c-7 1-7 1-11-2l-2-6h-2l-1 2-3 4z"/>
  <path fill="#a37d4e" d="m220 83-9 4-3 1-2 1-3 1-7 2-1 2-4-2 1-3h2v-3l4 1v2q3 0 5-4l-3-1h5v2l2-1 3-1 3-1z"/>
  <path fill="#a17f53" d="m473 414 2 1-7 22-1 4 4-5-4 10-1 3-1 2h-1v-9l1-8 2-1 3-7 1-4z"/>
  <path fill="#d5b77d" d="M187 83h1l1 6 4-2-1 5 3 2 1-4 5 1q-6 5-13 9v-2l-2-1z"/>
  <path fill="#cdab64" d="m303 65 2 1v7l2 1v6h-2l-1-5h-8l-2-5 2-1 2-1 2-1z"/>
  <path fill="#ab8757" d="m273 96 1 4h-2v4h4v-3h2l7 2 3-4 2 4q-4 3-9 3l-3-1-1 4-6-2v-7l-4 1 1-2h4z"/>
  <path fill="#b99968" d="m229 149 6 2-1 8c6 0 6 0 11-2l1 2 1-2 2-3h2q-1 5-7 9l-5 1v-1l-7-2-1-4 1-1v-5z"/>
  <path fill="#b9955d" d="m254 34 2 1-1 5h-3v-5h-2l1 7h-10v-2l-3-3 5-1v3l3 1v-4l-2-1z"/>
  <path fill="#9f7a54" d="M416 414q9 5 11 14l-1 7-2 2-2-1v-7q0-3-3-5v-6l-3-1z"/>
  <path fill="#cdaa64" d="m211 167 8 1-4 2 4-1h8l-5 2 6 1-1 4h-6l-3-3h-6z"/>
  <path fill="#d0b06e" d="m240 140 6 2v7l-1 2-7-1-2-2v-2l2-1z"/>
  <path fill="#9f7951" d="m195 62 3 2v4h9v2l-3 1-4 3-1 2-6-1 1-4v2h2l-1-5-3-1z"/>
  <path fill="#7e6a4a" d="M142 173h1v4l3 8v3l-10-3 1-10 2-1v3h2z"/>
  <path fill="#b8b7b7" d="M420 202h1v4q2 10 10 16l-4 2c-10-11-10-11-10-17z"/>
  <path fill="#d4a461" d="M228 311h3l1 11v6l-4 2-3-2v-7h1v6h2z"/>
  <path fill="#140d0b" d="m219 201 3 1-2 9-1 3-6 15-2-2 1-4 2-4 1-3z"/>
  <path fill="#ae8953" d="m74 163 8 5 2 2 2 2 4 3 1 2 5 3 2-10h1v9l-2 6-2-2-18-17-3-2z"/>
  <path fill="#c1a6a4" d="m333 217 2 2q0 6-4 10-7 3-15 2h-13l1-4v2h14c5 0 5 0 10-3q3-4 5-9"/>
  <path fill="#d5d2ce" d="m275 153 4 3 5 1-2 5-6 1-3-3z"/>
  <path fill="#c7c6c6" d="M437 119q0 7-5 12l-9 1v-3l8-3 1-2z"/>
  <path fill="#caab70" d="M285 117h8l1 3q1 5 4 5l2 1-3 1 2 2-4-1-1-3-7-3-2-1-5-2q2-2 5-2"/>
  <path fill="#a68461" d="m1 168 8 5 4 2 4-4 4 1-1 13h-1l-1-11-4 5q-7-2-13-9z"/>
  <path fill="#9e7a54" d="m212 145 1 3h3q3-1 5 3l2 2-5 5h-3l-1 5q-2-3-2-7l3-1 4-1 1-2-4-1h-2l-5 1 1-2z"/>
  <path fill="#c7a870" d="M298 99h1l-1 8-3 1v6l-4 2-3-1 2-3 1-4q0-3 2-5h4z"/>
  <path fill="#d6d1ca" d="m288 72 2 2 10 4 5 3-1 4-3-2-5-2-2-1-2-1-2-1-5-2v-2z"/>
  <path fill="#9f7b54" d="M436 383h4q-1 6-6 8l-2-2-8 1-1 5h-2l2-8q5-2 10-2l2 1z"/>
  <path fill="#c09c5d" d="m276 168 4 1 3 1 3 1 1 3 4-1-1 2h-2l-1 3-4-1-1-2 1-3-4 2-3-2-2-1-3 4-1-4q2-4 6-3"/>
  <path fill="#b79766" d="m244 106 4 1v2l6-1 3 4q-2 3-5 2h-8l1-5h-2z"/>
  <path fill="#d6d6d6" d="M440 102q8 3 12 10l1 7-4-3-1-2-8-10z"/>
  <path fill="#d3cfca" d="M222 60q3 3 2 7c-8 5-8 5-12 4l-3-4h3q5 0 8-4l-2-2z"/>
  <path fill="#d7d7d7" d="m28 469 4 5-1 4-5 1-4-7q3-4 6-3"/>
  <path fill="#c94731" d="m213 337 2 1-2 3h2v-2h2q0 4-3 7l-3 3-3 3h-2l1-7h2l1-3z"/>
  <path fill="#c39f5e" d="m121 156-6 10-2 2-6 7h-2q2-7 6-11l3-3 2-2 2-2z"/>
  <path fill="#af8b59" d="M289 62h6l3 4 3 2-6 2-6-2-2-1-2 1 1-4h4z"/>
  <path fill="#c1c0c0" d="M43 388h2v2l-3 15h-2l1 4q1 4-2 7l-2 2-2-1 1-3 1 1q3-6 2-12z"/>
  <path fill="#8f1918" d="m222 201 2 1c-5 23-5 23-10 28q-1-5 1-8 4-8 5-17z"/>
  <path fill="#9e7850" d="m270 146 9 3 2 5 7-1-1 4-1 3-3 3h-2l3-6h-5l-2-6h-2l-3-3z"/>
  <path fill="#c8a561" d="M268 118q4 2 5 5l-6 3v2l-6-7q4-4 7-3"/>
  <path fill="#d6d6d6" d="M453 97h3v4l-2 1-1 4 2 1-10-4 3-1 1-4z"/>
  <path fill="#b28f5d" d="m242 140 6 1 1 5 4-1v2c1 6 1 6 5 11l6 2h-7l-5-7v-5l-8 2 1-2 1-6z"/>
  <path fill="#211a1a" d="M279 200h2l3 8 1 2 3 15q-3-2-4-5l-1-3-1-3-1-3z"/>
  <path fill="#b19062" d="M247 63v3l-4 2v2l-10 2h-5l-3 1-5-1c6-4 6-4 9-4l-1 2 2-1 8-1q5-1 9-5"/>
  <path fill="#b09067" d="M231 57q3 2 2 5v3l7 1v1h-6l-4-4-4 1-1 2v-5l6-2c-4 0-4 0-8 3l1-4z"/>
  <path fill="#d6d6d6" d="m76 410 5 3v5l-4 1h-3l-2-5 3-1z"/>
  <path fill="#bebdbd" d="M90 341v3h-3q-13 3-24 8l-2 1-2-1c21-11 21-11 31-11"/>
  <path fill="#b38e56" d="M416 338q13 3 25 8l2 1 7 6-11-5q-11-6-23-7z"/>
  <path fill="#956d47" d="m210 169 1 4-5 3-3 2-5 1v-8h7z"/>
  <path fill="#cba863" d="m200 135 6 1v2l-2 1-8 5h-2v-2l-2-1 1-5h5v2z"/>
  <path fill="#d2b16e" d="M185 101c6 4 6 4 6 8l-1 3h-5q-2-3-1-7z"/>
  <path fill="#9c7753" d="M416 330q11 1 21 4l-3 1-1 2-2-1-15-3z"/>
  <path fill="#b69158" d="m296 175 2 1v2l3 1-1 5h-2l-1-2h-2q-4-1-6-6 4-3 7-1"/>
  <path fill="#1f1717" d="M310 164q3 4 2 10l1 10v5l-1 2q-6-13-2-27"/>
  <path fill="#97714c" d="M250 0h2q4 5 1 11h-2l1-5h-8l-1-2q2-4 7-4"/>
  <path fill="#372121" d="m323 164 3 1-1 3 2 12 1 5-4-3q-3-8-2-17z"/>
  <path fill="#a47f54" d="m39 159 2 2-2 2-3 2v3l3 1v-2l10 7-1 2-6-4-7-2-2-2q0-3 4-7z"/>
  <path fill="#9c754a" d="m444 356 5 3v11l-1 3v2l-2 5v-3z"/>
  <path fill="#180e0e" d="M312 187q5 2 7 6l6 9-3 1-7-7q-3-4-3-9"/>
  <path fill="#c9c9c9" d="m368 182-4 6-2 1-4 1-6 6-1 1-4 4 2-6 3-2 2-2 4-4 2-2q3-4 8-3"/>
  <path fill="#a0794c" d="m247 115 4 1-8 5 6 4h-5l-6 2 2-6-4-1-2-1-4 1v-3l10 2q4 0 7-4"/>
  <path fill="#9d7a59" d="M263 41q10 0 19 6l1 2-4 1-5-3-11-4z"/>
  <path fill="#d1ae66" d="M426 406q5 3 5 8l-3 1q-3 1-5-3l-2-3z"/>
  <path fill="#b9b9b9" d="M90 336v2l-8 2h-2l-12 3q4-5 9-5l2-1z"/>
  <path fill="#ab895e" d="M48 178q6 2 7 5l-1 3-3-3-10 7-2-1z"/>
  <path fill="#d3b167" d="M221 88q6 1 6 4l1 2-2 3-7-1q0-5 2-8"/>
  <path fill="#d2b26c" d="m278 87 3 3-2 4-6 1-2-5q2-3 7-3"/>
  <path fill="#d2af66" d="M470 464c7 0 7 0 11 3l1 5q-4 1-8-1l-4-5z"/>
  <path fill="#9c7852" d="M454 369h4q7 10 8 22l-6-12-5-7v5h-1z"/>
  <path fill="#2e1817" d="m351 214 4 1c2 8 2 8 1 12l-1-3-1 4h-15v-1h14z"/>
  <path fill="#241515" d="M257 204h2l3 9 1 2 1 3v2l1 5h-2l-3-8-1-2z"/>
  <path fill="#bd985b" d="m287 123 5 2-1 4q-4 3-9 2l-2-1h-2l-2-5q5 0 9 3h3l1-2-3-1z"/>
  <path fill="#e7d0aa" d="M225 338h3q1 11-2 20l-2 2z"/>
  <path fill="#cba863" d="M119 153q-2 6-6 8-6 5-9 12h-2c1-6 10-20 17-20"/>
  <path fill="#c5a260" d="m55 172 5 4q3 2 2 6l-4 1-3-3z"/>
  <path fill="#cfb47e" d="M239 76h2l1 4-3-1zm-6 4h13l8 1v1l-27 1q3-4 6-3"/>
  <path fill="#a27c4d" d="m253 49 1 9h5l2-1-2 4h-7l-1-6-4-1-1 3-2-5 6-1h2z"/>
  <path fill="#351e1d" d="m193 247 2 2-5 3-3 2-7 4 1 2h-4v-3h2v-2l-5-2 1-2 2 2 5 1 7-4 2-2z"/>
  <path fill="#050303" d="m138 166 3 1 11 1h2l4-2-4 6q-9 1-16-3z"/>
  <path fill="#b49363" d="m228 160 2 1-4 7-11 3-2-2 1-1-3-2h13z"/>
  <path fill="#a67f4f" d="m223 121 3 2 4-3-2 4 4 3-7-1v3h5q-4 2-10 3l2-2 1-5-1-2-3-1-3-1z"/>
  <path fill="#a17b4f" d="m226 110 3 2h9l7-1-1 3-9 1h-3l-4-1h-2l-4 4-2-1z"/>
  <path fill="#d4b36e" d="m207 55 4 2 1 4-1 2-7-1q0-4 2-6z"/>
  <path fill="#c7a66a" d="m248 44 6 4-2 4h-8q0-4 2-6z"/>
  <path fill="#c73628" d="m274 340 1 2 4-2q6 5 5 12l-3-3-2-1-2-2-2-2z"/>
  <path fill="#c5a56c" d="m286 158 2 2-2 1zm-18 2q3 0 5 3l5 1h2l1-2h7v2c-10 4-10 4-14 2l-4-3v-2z"/>
  <path fill="#a9865f" d="m485 395 3 3v15h-2q-2-5-1-10v-8"/>
  <path fill="#9f7a54" d="M128 182c13 9 13 9 18 15l-1 2-2-2-17-13z"/>
  <path fill="#0c4194" d="m92 662 2 4q1 7-2 13l-1 9h-1q0-13 2-26"/>
  <path fill="#cfad65" d="M484 464q5 2 6 7v3l-5-1-4-6z"/>
  <path fill="#1b4d9a" d="M442 435q0 5-4 8l-7 1h-4l1-3 6-1z"/>
  <path fill="#bfbebe" d="m61 416-2 1q-5 2-8 9l-1 7h-2q0-7 2-12c5-7 5-7 11-5"/>
  <path fill="#d5ad66" d="M249 308h1v18l4-4v-6h1v7l-1 5h-5l-1-3v-8l1-2z"/>
  <path fill="#d27952" d="M258 291v5l-6 1v-5l-3 1v-2l-2-1c8-1 8-1 11 1"/>
  <path fill="#966f49" d="m206 184-2 11-5-2v-6q3-3 7-3"/>
  <path fill="#727272" d="M360 173h1v9l-7 1v-8l1 2 5-2z"/>
  <path fill="#080808" d="M357 167h4q1 5-2 8l-4 2v-8h2z"/>
  <path fill="#d39f5e" d="M246 299q5 1 7 5l2 7h-2v-2h-2l-1-7-3 1-3-1-2 4-1-5z"/>
  <path fill="#c6c5c5" d="m444 101 3 1v2l2 1 6 3v6h-3l-2-3q-1-4-6-7z"/>
  <path fill="#c4a86c" d="M416 441q4 2 4 6l1 8-2 1q-4-7-3-15"/>
  <path fill="#c5231f" d="M233 345h1q1 7-3 13l-4 2c4-13 4-13 6-15"/>
  <path fill="#0d0a0a" d="m154 209 3 1-5 14h-2q-1-8 4-15"/>
  <path fill="#bababa" d="m464 162 2 1-2 4-5 2-2 2-5 1q2-5 7-8l5 1z"/>
  <path fill="#ab8552" d="m5 153 2 1-3 4q2 6 7 8l6-2q0 5-4 5t-7-4l-3-2-2-2q1-5 4-8"/>
  <path fill="#a38059" d="M220 88v8l3 2-2 2-5-1-2 3-2 3h-2l5-9h2v-3z"/>
  <path fill="#a47d4e" d="m441 400 5 3-8-1-1 2-4 3h-3l3 7h-2q-2-4-2-9l3-1 5-3z"/>
  <path fill="#22539e" d="M73 688h6v2l-19 3 2-4z"/>
  <path fill="#271212" d="m141 572 7 5q6 7 14 11l-4 1-5-4-2-2-3-3-2-2-5-5z"/>
  <path fill="#cdab64" d="m482 452 5 5v7l-5-3v-9"/>
  <path fill="#b59057" d="M234 77h5v3l-6 1h-4l-6-2q6-2 11-2"/>
  <path fill="#a47d4e" d="m239 74 3 1-8 3-11 1v2l2 1h-4l1-4-3-1h3l6-2h10z"/>
  <path fill="#d0ae66" d="m419 398 5 1 1 5-4 1h-2l-1-6z"/>
  <path fill="#bcbbbb" d="M52 371h2v10l-4 1-3 5h-2q0-5 5-8 3-4 2-8"/>
  <path fill="#b18c58" d="m194 159 5 1-1 6-2 1 2 3-5-3v-7z"/>
  <path fill="#d1af66" d="m282 147 2 1v2h2l-1 5h-4l-2-2v-4z"/>
  <path fill="#e33f42" d="m111 532 9 10 2 3 1 2-1 2q-7-6-11-15z"/>
  <path fill="#d5d5d6" d="M36 466v10h-2l-3-3-1-2-1-4z"/>
  <path fill="#d0ae68" d="m16 142 8 5-2 4-6-3z"/>
  <path fill="#d9d9d9" d="M485 138v7l-5 3-2-5z"/>
  <path fill="#d5d5d5" d="m85 407 4 3v6l-5-1-2-3z"/>
  <path fill="#d5a867" d="M215 337h4v10h-6l1-3h2l1-5h-2v2h-2z"/>
  <path fill="#d5a164" d="m212 326 4 1v7l-4 4-2-2 3-6h-2z"/>
  <path fill="#1b1515" d="M327 184q5 1 8 7l2 2 2 4q-5-1-8-5l-2-3q-2-2-2-5"/>
  <path fill="#2b2b2b" d="M148 172h6l-1 7-6-1v-2h-2v-2l3-1z"/>
  <path fill="#201717" d="M174 161q3 6 2 11v6l-2 1v-3l-1-4v-2l-3-8z"/>
  <path fill="#bb975a" d="M249 15h7v1h-6v4l1 2 1 5 3 1v2h-5v-5h-3v-2z"/>
  <path fill="#d6d7d7" d="M87 426h3v9l-5-2v-5z"/>
  <path fill="#ebd9b9" d="m253 339 4 12 2 4v5q-7-10-6-21"/>
  <path fill="#48201b" d="M224 203q10 0 19 2l-1 6-3-3v-3l-14-1-1 3z"/>
  <path fill="#1c1915" d="m143 179 10 1v6l-5-2v-2h-2l-1 3-2-1z"/>
  <path fill="#b6b5b5" d="m447 175 1 3-4 6q-4-1-7-6v-2h2l1 2z"/>
  <path fill="#d0ae66" d="M247 168h10l1 2-7 1h-3q-3 1-5-2z"/>
  <path fill="#c3a265" d="m222 67 2 1v3l-4 1v2l-6 1-1-3 2-1 2-1 2-1z"/>
  <path fill="#3e3e3e" d="M326 333h2l1 19h-1l-1-11-3 2v-4l1-3z"/>
  <path fill="#d5d2cf" d="m289 165 3 2v3l-4-1h-3l-5-3q4-3 9-1"/>
  <path fill="#d1ae66" d="m212 150 8 2-2 4h-5l-1-4z"/>
  <path fill="#9a744e" d="m292 138 1 3h2l1 7-3 1v3l-3-1v-3l2-1z"/>
  <path fill="#bf9e68" d="m41 101 2 1v6h-3l-2 3-3-2v-4l5-3z"/>
  <path fill="#d0b272" d="m253 95-1 3-4 1 1 5-5-1 1-7z"/>
  <path fill="#97704a" d="m307 77 1 2 4 4-1 5-4-1-2-6h2z"/>
  <path fill="#d4d1cd" d="m249 63 4 2 1 2 2 1v1h-12z"/>
  <path fill="#9e774b" d="M445 381h1l-4 15 2 1-4-1q0-8 5-15"/>
  <path fill="#201212" d="M240 207h1q0 8-3 15l-2-5 1-2v-3z"/>
  <path fill="#a37e55" d="m56 201 5 2-4 3-5 4q-4-1-6-5l6 1z"/>
  <path fill="#cecdcd" d="M399 163h3v11q1 3-2 5z"/>
  <path fill="#b89359" d="m236 167 3 1 1 3q-3 3-7 3l-4-4h2z"/>
  <path fill="#9c764f" d="m10 146 7 4 2 2 1 3-6-4-2-1-5 2z"/>
  <path fill="#a07c5a" d="m220 49 2 1-2 1-2 2-2 1q-2 2-2 5v2l-1-3-4-2-1-2 3-3v4z"/>
  <path fill="#bebdbd" d="m83 418 7 1v7l-7 1 2-2 1-6z"/>
  <path fill="#dfc08c" d="M224 301q6 1 10 5l2 7-2-2-9-8-1-1z"/>
  <path fill="#b18c55" d="m40 191 9 7 2-1 6-3 1 2-9 5-4-4-3-2-2-2z"/>
  <path fill="#1e1e1e" d="M350 171v5h-3v5l-1-2h-2l-1-7z"/>
  <path fill="#d0ad65" d="M59 108v2l-4 3-9 8q2-7 8-12z"/>
  <path fill="#b59669" d="m205 104 3 1 1 3-3 2-1-3-5 4-1-5z"/>
  <path fill="#bd995c" d="m196 90 5 1q-6 5-13 9l1-4 3-1 1-2 2 1z"/>
  <path fill="#b08f61" d="m267 57 7 1 1 4-3 3 1-5h-3l-1 3-2-3-2 2z"/>
  <path fill="#1c76ba" d="m374 676-2 6-7 4-4-1 3-2 3-2 2-1z"/>
  <path fill="#a17c56" d="M483 380q4 7 4 16l-4-4v-3l-1-2z"/>
  <path fill="#ac8653" d="M449 359q6 4 8 10l-2 1-1 6v5h-1v-13l-1-2q0-2-3-5z"/>
  <path fill="#a07b53" d="m291 195 1 2-4 2h-8l-1-2 8-2z"/>
  <path fill="#727171" d="M352 179v7l-5 3h-2l-1-4 3-1z"/>
  <path fill="#040404" d="M143 173h7l-3 2-2-1v2h2v2l6 1v1h-7l-3-1z"/>
  <path fill="#d4d4d4" d="M385 150a23 23 0 0 1 12 14q-5-2-8-8l-2-3z"/>
  <path fill="#d0ae65" d="M55 106v2l-4 4-6 7v-5c6-8 6-8 10-8"/>
  <path fill="#d0b57d" d="m222 84-2 4v-2l-3 1-5 2h-2c-6 2-6 2-9 1q10-6 21-6"/>
  <path fill="#e9d4af" d="m201 349 7 9 3 4q-4 0-8-4z"/>
  <path fill="#ead2b3" d="M266 287v2h2l-1 5h-5l-1-5z"/>
  <path fill="#181414" d="m219 201 3 1-3 13h-3z"/>
  <path fill="#695236" d="M146 182h2v2l5 2v4l-6-1z"/>
  <path fill="#a78150" d="M210 176h3l2 4-5 3-4-2-1 2 1-4h3z"/>
  <path fill="#c6a260" d="m228 150 5 1v5l-2 1-4-2z"/>
  <path fill="#a98659" d="m229 149 6 2-1 8 5 2v1l-7-1-1-4 1-1v-5z"/>
  <path fill="#ccaa63" d="M297 131h7l3 6-6-1-2-2-2-1z"/>
  <path fill="#af8a54" d="m263 74 10 1-2 2 4 4-8-1-1-5-4 1z"/>
  <path fill="#97704b" d="m485 453 4 3 1 9h-3z"/>
  <path fill="#bfc0c2" d="m29 430 6 7 1 2 1 2 2-1v7l-7-10-2-3z"/>
  <path fill="#ebd3b4" d="M226 274h2v2h2l-1 5h-5l-1-5h3z"/>
  <path fill="#cfcfcf" d="m375 174 2 1q-1 5-5 6l-2 1-2 1-2-2z"/>
  <path fill="#6b1715" d="M178 159v3l-4 1v-2l-14 2q8-5 18-4"/>
  <path fill="#d3b167" d="m219 125-1 4q-4 3-9 2l1-3z"/>
  <path fill="#cfad65" d="m239 73 17 1v2h-14v-2z"/>
  <path fill="#e5c69f" d="M286 354h2q0 5-4 9h-5l1-1 2-2 2-2z"/>
  <path fill="#010000" d="m354 223 2 1 1 5h-20v-2l17 1z"/>
  <path fill="#a98455" d="M39 105h1v5l2-1h2l2 2-6 3-4-2v-2h2z"/>
  <path fill="#c7c7c7" d="m456 98 3 2-1 5-3 2-2-1 1-5h2z"/>
  <path fill="#9f7951" d="m287 99 3 2v2c-5 3-5 3-9 3l-4-2v-3l2 1h7z"/>
  <path fill="#d2cabf" d="m288 72 2 2q4 3 9 3-3 3-7 2l-2-1-3-1-2-1v-2z"/>
  <path fill="#d1b06a" d="m194 67 2 1v5h-2l-1 2h-3l1-7z"/>
  <path fill="#d3cbbd" d="m267 67 4 2 7 3h-10l-4-1-2-1z"/>
  <path fill="#d3b167" d="m288 55 4 2 1 5-5-1-1-5z"/>
  <path fill="#1c4c9a" d="M95 526h2l-1 13h-2v-8z"/>
  <path fill="#e0c28e" d="M279 337h2l3 5 1 3 1 8q-5-7-7-16"/>
  <path fill="#a27c50" d="m39 171 3 2q-1 6-5 8l-2 2-1 2-2-1 2-2 2-2 1-3q3-1 2-6"/>
  <path fill="#cba863" d="m113 153 2 1-2 2q-6 5-10 12l-1-3q4-7 11-12"/>
  <path fill="#c39f5f" d="M244 73h19l-1 3h-2l-1 1-3-1v-2h-12z"/>
  <path fill="#977049" d="m281 49 4 1 1 4h2l-2 5-3-3-1-3v-2z"/>
  <path fill="#c6a564" d="M422 474h1v6l-7 1v-4l6-1z"/>
  <path fill="#c73528" d="M245 354q3 3 2 8v4h-3v-7z"/>
  <path fill="#d7a96d" d="m242 330-1 5-5-1v-4z"/>
  <path fill="#bdbdbd" d="m173 261 16 1 1 2h-17z"/>
  <path fill="#4f2323" d="m149 220 1 4h2l-2 18v-16l-2 2z"/>
  <path fill="#cdaa64" d="m219 121 4 2 1 5-2 3-2-1v-3l-3-4z"/>
  <path fill="#a78458" d="M292 114h2l1 5-2 2v-4h-2l-2 1h-8v-2h5l3-1z"/>
  <path fill="#d6b672" d="M202 63h3l1 5-5 1-3-2h2z"/>
  <path fill="#dfbf8b" d="M210 337h2l-3 8h-2l-1 7h-1q0-8 5-15"/>
  <path fill="#2e1211" d="M408 229h1v20l-3 1v-5h2z"/>
  <path fill="#101010" d="M351 178v6l-2-1-5 2v-6h2v2l1-1z"/>
  <path fill="#b99459" d="m285 171 2 1v2l4-1-1 2h-2l-1 3-4-1-1-2 1-2h2z"/>
  <path fill="#ac8b61" d="m221 86 8 4v4h2v2l-5 1 1-5-3-2-3-2z"/>
  <path fill="#a17c52" d="m288 69 3 3q-5 3-12 2l-1-2h2l2-1h3z"/>
  <path fill="#0e4798" d="M460 565v8l-1 3v2l-3-3 1-5v-2z"/>
  <path fill="#d29257" d="M273 361h4v3l3 1h-15v-1h10v-2z"/>
  <path fill="#e0c38f" d="M279 347q4 2 5 7h-2l-2-5h-9q3-4 8-2"/>
  <path fill="#eddabf" d="M239 274v5h-5l-1-5z"/>
  <path fill="#a58052" d="M239 202h14v3h-7q-3 1-7-3"/>
  <path fill="#bbbaba" d="m344 185 1 3-10 5v-3l3-3 2-1z"/>
  <path fill="#d5d5d5" d="M446 172v5l-6 2q1-6 6-7"/>
  <path fill="#d2b26e" d="m269 146 5 2v2l-3 1-5 2v-5z"/>
  <path fill="#b79562" d="M246 129h13v1h-7l3 4-7-1 1-3z"/>
  <path fill="#d3b167" d="M254 116h10l-1 3-5 1z"/>
  <path fill="#d8b071" d="m227 330 5 1v4h-5l-1-4z"/>
  <path fill="#efdec5" d="m219 281 4 2v4h-5l-1-4z"/>
  <path fill="#cdcdcd" d="m331 217 2 3-9 7z"/>
  <path fill="#a07a50" d="m61 163 1 3-6 5-2-2 2-5 4 1z"/>
  <path fill="#d0ad65" d="m210 156 3 1-3 6-3-1 1-5z"/>
  <path fill="#bebdbd" d="M388 148q4 2 5 5l2 3 1 4 2 1h-3l-3-4-2-2-3-5z"/>
  <path fill="#d2b067" d="M204 153h7v2h-4l-1 3-4-1z"/>
  <path fill="#d4b267" d="m281 124 8 2-1 3-6-1z"/>
  <path fill="#ccb58d" d="m226 113 7 2-1 2-8 1q0-3 2-5"/>
  <path fill="#c19e61" d="M280 90h1v5l-6 5-2-5 3-1 3-1z"/>
  <path fill="#a37e53" d="M208 72h2q-3 7-10 10l-3 1v-2l4-3z"/>
  <path fill="#d8b474" d="m250 329 4 1-1 5-4-1z"/>
  <path fill="#e1c291" d="m263 302 2 1-8 8-1-4q3-4 7-5"/>
  <path fill="#2a1c1c" d="M165 222h2l-2 7-1 5v4h-1v-8z"/>
  <path fill="#cbab6f" d="m228 164 1 2 7 1-3 4q-4-1-6-5z"/>
  <path fill="#d0b47c" d="m227 149 2 1-1 3-2 9-2-1v-3q1-4-2-7h2z"/>
  <path fill="#cfac65" d="M237 116h8v2l-6 2-2-1z"/>
  <path fill="#d3b067" d="m303 107 5 1-1 5-4-1z"/>
  <path fill="#ba955a" d="m214 80-5 1v3l2 1-6 1 1-4c4-3 4-3 8-2"/>
  <path fill="#f1e4cc" d="m264 275 4 3-1 3h-5z"/>
  <path fill="#9e7953" d="M1 168q7 2 10 8-6-1-10-6z"/>
  <path fill="#b5966b" d="m281 146 4 1v2h2l1-2v2h2v2c-6-1-6-1-8-3l-1 1h-5l2-1z"/>
  <path fill="#ac8653" d="m200 139 3 2-4 3-2 1-2 1-2-1v-3h-2l1-2 3 2-1 2z"/>
  <path fill="#cdaa64" d="m205 139 2 2-12 7q2-5 6-7l2-1z"/>
  <path fill="#c4a15f" d="M307 111h1v5l-5 5-4-3 6-2v-3h2z"/>
  <path fill="#d3cdc4" d="M272 111q4 1 6 5l-9-1 1-3z"/>
  <path fill="#d0ae65" d="M195 111h2l-1 5h-4l-1-4z"/>
  <path fill="#cfbb93" d="m254 108 3 4-5-1v1h-6c4-4 4-4 8-4"/>
  <path fill="#d3b167" d="m277 79 5 1h3l4 2v2l-4-1h-3l-5-2z"/>
  <path fill="#c8a86b" d="m291 68 4 3 5 1-4 3-5-2z"/>
  <path fill="#d4b267" d="m292 63 5 1 1 4h-5z"/>
  <path fill="#c29e5e" d="m247 34 9 1-1 5h-3v-5h-5z"/>
  <path fill="#164797" d="m403 660 1 3-7 7-1-3z"/>
  <path fill="#d2985a" d="m259 331 1 2 5-2-1 6-4-1z"/>
  <path fill="#d7ac6c" d="m276 327 4 1-1 3-1-2h-2l1 2 1 5h-2l-1-8z"/>
  <path fill="#f2e4cf" d="M270 281h2v2h2l-1 4h-4l-1-4h2z"/>
  <path fill="#ca5035" d="m232 273 3 1h-2l2 6h-4l-1 2-2-1 2-5h2z"/>
  <path fill="#f2e6d0" d="M255 272h2v2h2l-1 4h-4l-1-4h2z"/>
  <path fill="#0c0a0a" d="M150 225h1v13l-3-6v-2z"/>
  <path fill="#a91a1a" d="M281 214q5 4 5 9l-1 2h-2z"/>
  <path fill="#51422d" d="m138 174 1 3 2 1-2 6h-2v-7z"/>
  <path fill="#591d1b" d="m158 163 2 1-2 4v-2l-6 4 2-6z"/>
  <path fill="#cbc0b1" d="M229 163h14v2l-14 1z"/>
  <path fill="#bfa376" d="m267 157 1 5-10 1v-1h6v-2l-3-1z"/>
  <path fill="#a78359" d="M268 160q3 0 5 3 4 3 8 2l-2 2q-5 0-9-4v-2z"/>
  <path fill="#a07d58" d="M219 154v3l-4 1-1 5q-2-3-2-7z"/>
  <path fill="#bd985b" d="m247 115-4 2h-2l-6 1-3-2c3-3 11-2 15-1"/>
  <path fill="#b18c57" d="m190 111 2 5-1 2-4-2-1-4z"/>
  <path fill="#af8954" d="m194 86 2 1-1 7-4-2 1-3h2z"/>
  <path fill="#cead67" d="m223 80 5 1-2 3-6 1h-5l8-4z"/>
  <path fill="#a58466" d="M263 41h4l3 1 5 2q-7 2-12-1z"/>
  <path fill="#2a5aa2" d="m461 562 2 1-1 4v3l-3 5v-2l1-2v-3l-1-5z"/>
  <path fill="#d6d6d6" d="m20 464 4 1v4h-5z"/>
  <path fill="#a78666" d="m428 386-2 4h-2l-1 5h-2l2-8z"/>
  <path fill="#c94730" d="m228 305 6 5v3h-2l-1 2z"/>
  <path fill="#be9f71" d="m197 176 4 4-1 4-4 1z"/>
  <path fill="#292929" d="m352 170 3 2-1 12h-1v-8l-2-1z"/>
  <path fill="#0c0c0c" d="m187 170 3 1v7l-3 1z"/>
  <path fill="#ceb37d" d="m211 167 8 1-4 2v3h-3z"/>
  <path fill="#891918" d="M334 160q7 2 11 8v2q-5-1-7-6z"/>
  <path fill="#c4a162" d="m301 138 3 1v2h3l-1 4-5-2-1-4z"/>
  <path fill="#ab8552" d="m205 134 2 1 8-1q-4 4-10 6l-2-1 3-1v-2l-2-1z"/>
  <path fill="#bebdbd" d="m450 94 5 2v1l-8 2 1-4zm-9 5h6v1h-6z"/>
  <path fill="#c4a05f" d="m286 57 5 8h-5z"/>
  <path fill="#a88354" d="M251 54h2l2 5 6-2-2 4h-7z"/>
  <path fill="#0c4597" d="M466 539h1v4l-1 3v2l-2 1v-8z"/>
  <path fill="#d6d5d5" d="m78 404 5 1-1 4-4-1z"/>
  <path fill="#393939" d="M130 379h3v7h-2l-2 2z"/>
  <path fill="#e6d0a5" d="M274 353h6l1 3-7 1z"/>
  <path fill="#f4ead7" d="m236 289 3 2v4h-4l-1-4z"/>
  <path fill="#f3e8d6" d="M227 287h2l1 6h-4l-1-4h2z"/>
  <path fill="#d0784f" d="m259 274 1 2 3 1-2 2-2-1v2l-6-1 1-3v2h4z"/>
  <path fill="#f4ebd7" d="M245 272h2v2l2 1-1 3h-4l-1-4h2z"/>
  <path fill="#a58360" d="m128 182 4 2 1 2 2 1v2q-5-1-9-6z"/>
  <path fill="#ba965a" d="M296 126q7 1 10 5l-10-1z"/>
  <path fill="#d2ccc6" d="M293 117v5l-8-3v-1z"/>
  <path fill="#a47e50" d="M299 103q2 5-1 8l-4-1 1-3h3z"/>
  <path fill="#a07a4f" d="m292 104 3 1-3 8h-3l1-1 1-3z"/>
  <path fill="#b38e56" d="m274 76 10 2 1 3-4-1h-3z"/>
  <path fill="#d2cdc7" d="M302 69v3h-7l-1-2c5-2 5-2 8-1"/>
  <path fill="#d8d9d9" d="M87 469h3v7h-3z"/>
  <path fill="#a4815e" d="M418 409h4l2 8h-2z"/>
  <path fill="#d3a15f" d="m255 357 2 1 5 1 2 3-3 1-6-5z"/>
  <path fill="#d29257" d="M213 354h2v2h2l-1 3h-5z"/>
  <path fill="#170909" d="M156 166h2q-1 4-5 6l-5-2 6-2z"/>
  <path fill="#d2b26f" d="M231 161h5l3 1h2q-2 3-5 2-4 1-6-2z"/>
  <path fill="#d1cdc8" d="m294 140 4 1v8l-3-1z"/>
  <path fill="#977048" d="m253 104 1 3h-5l-1 2v-2l-3 1 1-3z"/>
  <path fill="#bd9a5f" d="m253 101 2 1v2l-10 2 1-4v2l3-2z"/>
  <path fill="#b5915c" d="m32 97 1 2 4 1-1 3-4 1z"/>
  <path fill="#cdad6d" d="M225 59h6l-1 2h-4v8h-3c0-7 0-7 2-10"/>
  <path fill="#c19d5e" d="m226 60 5 1-2 3h-3l-1 2v-5z"/>
  <path fill="#1974b9" d="M361 686q0 3-4 5h-5c6-5 6-5 9-5"/>
  <path fill="#146fb6" d="M97 589q4 2 7 6l-1 3z"/>
  <path fill="#343434" d="M365 463h3v7l-4 1z"/>
  <path fill="#d3995c" d="M243 359h1v7l4 1-1 2-4-1q-2-4 0-9"/>
  <path fill="#d8ac71" d="M215 337h4v7l-2-5h-2v2h-2z"/>
  <path fill="#a8855e" d="m437 334-3 1-1 2-7-2q6-3 11-1"/>
  <path fill="#d39e5d" d="M254 316h1v7l-1 5h-5l2-1q4-5 3-11"/>
  <path fill="#cb5338" d="M260 289q3 2 2 5l2 1-4-1-1 3-2-1 1-5h2z"/>
  <path fill="#f5ecdb" d="m255 289 3 2-1 4h-3l-1-4z"/>
  <path fill="#9d774c" d="m210 169 1 4-5 2v-2l-4-1 3-1z"/>
  <path fill="#c5a366" d="M224 162h3q-1 4-5 5l-2 1z"/>
  <path fill="#ceab64" d="M121 156q-2 6-7 8l-2-1 3-3 2-2z"/>
  <path fill="#b49363" d="m274 149 1 2h2v2h-2l-1 2-1-2-3-1v-2z"/>
  <path fill="#cfac65" d="m229 119-2 4h-3l-2-3z"/>
  <path fill="#d1ae66" d="m271 116 7 3v2l-4 1-3-3z"/>
  <path fill="#c39f5e" d="M232 77h7v3l-8-1z"/>
  <path fill="#c0a16e" d="m246 59-4 9h-2l3-6-3-2z"/>
  <path fill="#335ea4" d="m411 674 4 4v7q-3-5-4-11"/>
  <path fill="#df282f" d="m128 555 2 2 4 5 1 3h-2c-5-5-5-5-5-10"/>
  <path fill="#bcbcbc" d="m89 465 1 4h-3v7h-1v-9z"/>
  <path fill="#c5a15f" d="m458 352 3 3 2 1 4 5-5-1-1-2-2-2z"/>
  <path fill="#b6b6b6" d="M90 341v3h-9q4-4 9-3"/>
  <path fill="#856e44" d="m144 181 2 7-6-2 2-3 2 1z"/>
  <path fill="#9c764d" d="m228 160 2 1-4 7-3-1 2-2z"/>
  <path fill="#987149" d="m212 145 1 3h3v2l-7 2 1-2z"/>
  <path fill="#ac8752" d="m224 125 1 4h5q-4 2-10 3l1-2z"/>
  <path fill="#caa662" d="M247 27v4l-4 2-2-2q5-5 6-4"/>
  <path fill="#a27e57" d="m446 409 6 1-1 3-6-2z"/>
  <path fill="#434343" d="M181 353h8l1 3-8-1z"/>
  <path fill="#d4975f" d="m288 342 2 3 4-1q-3 5-6 5z"/>
  <path fill="#333" d="M366 287h3l-1 6-3 2z"/>
  <path fill="#434343" d="M340 264h8l-1 3h-6z"/>
  <path fill="#292728" d="M279 200h2l2 7h-3z"/>
  <path fill="#966f49" d="m203 181-1 4-5 1q2-6 6-5"/>
  <path fill="#9b754e" d="m55 180 5 4-4 3-2-6z"/>
  <path fill="#c6a360" d="m200 127 3 2q-4 4-7 3z"/>
  <path fill="#c7a565" d="m196 90 5 1q-3 4-8 5z"/>
  <path fill="#c39f5e" d="m273 75 1 2 3 1-1 3-6-4z"/>
  <path fill="#1973b8" d="m155 693 9 5q-5 0-9-3z"/>
  <path fill="#2b58a1" d="M66 689h3q-4 4-9 4 0-5 6-4"/>
  <path fill="#9f7951" d="m423 414 6 1-3 1v2l4 1h-5z"/>
  <path fill="#c7c7c7" d="M52 371h2v10l-3-1z"/>
  <path fill="#c8392a" d="m229 353 1 2h2l-2 4-3 1z"/>
  <path fill="#9e774b" d="m416 338 9 2v1h-9z"/>
  <path fill="#d38c59" d="m278 334 2 3-2 4-1-3-4-1 5-1z"/>
  <path fill="#dfc18c" d="M216 303h3l1 5-4-1z"/>
  <path fill="#a47e4f" d="M204 184h2l-2 11h-1v-8z"/>
  <path fill="#bd995c" d="m299 178 2 1-1 5h-2l-3-4z"/>
  <path fill="#101010" d="M360 167h1l-1 8h-2q0-5 2-8"/>
  <path fill="#a27d55" d="m5 153 2 1-1 2-3 5H1q0-5 4-8"/>
  <path fill="#b28d55" d="m299 133 2 1v2l4 1-6 2-1-5z"/>
  <path fill="#be9a5c" d="m200 135 6 1v2l-5 2z"/>
  <path fill="#c8a561" d="m274 107 2 1-7 4-3-1c5-4 5-4 8-4"/>
  <path fill="#d4b268" d="M201 106h5l1 4-2-1v-2l-5 4z"/>
  <path fill="#c5a76f" d="m245 97 4 7-5-1v-5z"/>
  <path fill="#b9945a" d="m252 96 2 1-2 4-5-1 1-2h4z"/>
  <path fill="#a47f52" d="m227 67 2 1-3 4-6 1 2-2z"/>
  <path fill="#d5b267" d="M269 63h2l4 7-8-5z"/>
</svg>
